<svg width="119" height="100" viewBox="0 0 119 100" fill="none" xmlns="http://www.w3.org/2000/svg">
<g clip-path="url(#clip0)">
<path d="M118.362 22.031C118.289 22.507 118.703 23.009 118.158 23.426C118.032 23.521 118.042 23.881 118.079 24.102C118.168 24.642 118.069 25.164 118.074 25.692C118.079 26.395 117.896 26.961 117.46 27.521C117.067 28.023 117.009 28.741 116.448 29.164C116.243 29.317 116.364 29.618 116.332 29.845C116.311 30.03 116.322 30.347 116.238 30.374C115.294 30.691 115.42 31.679 115.032 32.329C114.661 32.9367 114.176 33.4676 113.605 33.893C113.348 34.088 113.112 34.231 113.212 34.521C113.421 35.129 112.582 35.647 112.997 36.138C113.479 36.719 112.645 37.131 112.991 37.734C113.212 38.114 112.818 38.774 112.907 39.329C112.939 39.519 112.97 39.731 112.913 39.899C112.608 40.829 112.635 41.712 113.18 42.557C113.204 42.5992 113.218 42.6462 113.222 42.6947C113.226 42.7431 113.218 42.7917 113.201 42.837C112.771 43.651 113.269 44.459 113.212 45.273C113.149 46.134 113.196 47.001 113.191 47.863C113.191 48.143 113.264 48.433 113.044 48.686C112.834 48.924 112.792 49.294 112.928 49.495C113.4 50.208 113.217 50.847 112.802 51.46C112.593 51.767 112.698 51.946 112.839 52.22C113.117 52.755 113.442 53.304 113.007 53.943C112.797 54.25 112.897 54.583 113.18 54.836C113.568 55.18 113.652 55.592 113.243 55.941C112.834 56.284 113.08 56.458 113.316 56.707C113.4 56.797 113.479 57.05 113.448 57.071C112.797 57.521 113.143 58.207 113.023 58.778C113.007 58.868 112.897 58.978 112.923 59.031C113.432 60.019 112.666 60.775 112.456 61.626C112.388 61.906 112.194 62.233 112.435 62.413C113.101 62.899 112.823 63.39 112.503 63.866C112.262 64.23 112.871 64.595 112.388 65.006C112.068 65.276 112.771 65.836 112.367 66.27C112.671 66.56 112.262 67.073 112.698 67.332C112.928 67.469 112.76 67.628 112.692 67.802C112.624 67.971 112.587 68.188 112.629 68.357C112.76 68.89 113.112 69.408 112.645 69.942C112.881 70.412 113.091 70.882 112.635 71.352C113.269 72.213 112.503 73.064 112.614 73.925C112.65 74.2 112.671 74.555 112.535 74.76C112.152 75.347 112.367 75.843 112.629 76.356C112.829 76.736 113.086 77.096 112.724 77.518C112.514 77.766 112.703 77.946 112.823 78.152C112.981 78.416 112.944 78.728 112.876 78.992C112.619 79.954 112.493 82.014 112.719 82.881C112.76 83.05 112.965 83.203 112.839 83.393C112.346 84.133 112.456 84.841 112.881 85.56C112.923 85.628 112.886 85.75 112.886 85.845C112.892 86.194 112.262 86.463 112.477 86.585C112.871 86.801 112.944 87.05 112.871 87.372C112.74 87.916 113.275 88.418 112.913 88.972C112.624 89.417 112.955 90.024 112.729 90.405C112.446 90.88 113.112 91.165 112.776 91.588C112.54 91.889 112.267 92.259 112.582 92.698C112.619 92.745 112.561 92.882 112.519 92.956C111.79 94.288 111.769 94.282 111.764 95.44C111.764 95.931 111.743 96.322 111.103 96.216C110.694 96.903 109.666 96.544 109.288 97.305C109.251 97.373 109.021 97.357 108.879 97.363C107.389 97.421 105.942 97.701 104.51 98.123C104.2 98.213 103.817 98.303 103.539 98.198C102.747 97.896 101.929 98.166 101.158 98.018C100.387 97.87 99.538 98.166 98.835 97.638C97.938 97.965 97.02 97.558 96.144 97.685C95.315 97.807 94.523 98.113 93.694 97.743C93.511 97.659 93.432 97.801 93.364 97.891C93.054 98.282 92.782 98.192 92.394 97.96C91.654 97.506 90.951 97.78 90.311 98.25C89.839 98.6 89.603 98.641 89.183 98.182C88.973 97.955 88.858 97.892 88.623 98.05C88.428 98.177 88.166 98.261 88.066 98.435C87.731 99.016 87.29 98.879 86.881 98.631C86.099 98.155 85.323 98.087 84.515 98.525C84.321 98.631 84.19 98.773 83.912 98.599C83.592 98.399 83.188 98.419 82.842 98.673C82.774 98.726 82.612 98.779 82.596 98.758C81.872 97.754 80.969 98.858 80.125 98.541C79.511 98.308 78.735 99.138 78.005 98.531C77.975 98.504 77.849 98.604 77.759 98.625C77.314 98.742 76.994 99.27 76.364 98.863C76.102 98.694 75.525 99.165 75.042 99.091C74.854 99.064 74.612 99.133 74.486 99.032C74.182 98.8 73.941 98.737 73.61 98.995C73.5129 99.0657 73.3946 99.1012 73.2746 99.0955C73.1546 99.0899 73.0401 99.0435 72.95 98.964C72.032 98.192 71.135 98.737 70.222 98.974C69.64 99.127 69.105 99.45 68.465 99.371C68.145 99.328 67.825 99.434 67.689 98.958C67.621 98.715 67.206 99.159 67.033 98.821C65.989 99.217 64.945 99.212 63.891 98.842C63.498 98.7 63.236 99.091 62.831 99.106C61.662 99.154 60.466 98.806 59.323 99.291C59.296 99.301 59.243 99.26 59.207 99.238C57.827 98.446 56.38 99.328 54.98 99.075C54.12 99.535 53.123 99.17 52.252 99.545C52.048 99.635 51.901 99.64 51.743 99.503C51.497 99.286 51.203 99.392 50.925 99.371C50.5 99.339 50.081 99.598 49.724 99.581C49.294 99.561 48.827 99.175 48.407 99.45C48.03 99.698 47.589 99.059 47.306 99.614C46.797 99.487 46.33 99.365 45.753 99.487C45.303 99.582 44.773 99.645 44.274 99.64C43.608 99.635 42.979 99.962 42.254 99.687C41.824 99.524 41.227 99.524 40.749 99.851C40.644 99.925 40.445 99.968 40.346 99.909C39.538 99.455 38.641 100.105 37.828 99.672C37.508 99.502 37.068 99.957 36.941 99.878C36.044 99.308 35.226 100.01 34.366 99.999C33.5743 99.9902 32.7835 99.9445 31.996 99.862C31.014 99.751 30.044 99.698 29.106 99.376C28.481 99.793 27.804 99.46 27.154 99.513C26.986 99.529 26.844 99.656 26.64 99.545C25.895 99.138 25.087 99.001 24.259 98.832C23.194 98.615 22.071 98.515 21.075 97.939C20.692 97.717 20.183 97.749 19.973 97.236C19.889 97.03 19.663 97.051 19.48 97.051C19.239 97.056 18.971 97.077 18.835 96.845C18.415 96.137 17.671 95.841 17.062 95.365C16.27 94.753 15.83 93.818 15.169 93.078C14.476 92.306 14.083 91.356 13.611 90.452C13.569 90.368 13.459 90.283 13.469 90.209C13.627 88.899 12.782 87.615 13.343 86.283C13.375 86.204 13.17 85.987 13.207 85.951C13.973 85.052 14.072 83.716 15.316 83.071C15.987 82.722 16.506 82.183 17.34 82.341C17.597 82.39 18.882 82.902 19.134 83.198C19.265 83.351 19.349 83.483 19.554 83.488C19.648 83.488 19.753 83.504 19.832 83.462C20.068 83.352 19.874 83.224 19.8 83.161C19.49 82.871 19.543 82.622 19.622 82.194C19.711 81.671 19.328 81.069 19.716 80.498C19.763 80.429 19.669 80.149 19.606 80.133C19.082 80.012 19.139 79.605 19.156 79.23C19.176 78.776 18.72 78.237 19.381 77.877C19.433 77.851 19.412 77.697 19.438 77.613C19.643 76.926 18.94 76.324 19.197 75.685C19.459 75.03 19.627 74.448 19.197 73.804C19.107 73.672 19.124 73.413 19.176 73.244C19.433 72.43 19.501 71.622 19.156 70.814C19.139 70.776 19.181 70.708 19.16 70.671C18.93 70.237 19.863 70.401 19.548 69.847C19.381 69.551 19.448 69.107 19.433 68.727C19.417 68.341 19.428 67.96 19.438 67.575C19.448 67.295 19.338 66.978 19.601 66.761C20.419 66.09 20.121 65.271 19.858 64.5C19.727 64.114 19.779 63.781 19.79 63.406C19.816 62.682 20.094 62.022 20.083 61.266C20.073 60.569 20.199 59.786 20.325 59.058C20.461 58.27 20.409 57.351 21.19 56.791C21.473 56.591 21.484 56.342 21.253 56.062C21.053 55.819 21.085 55.486 21.174 55.238C21.348 54.757 21.557 54.26 21.862 53.858C22.155 53.468 21.689 53.093 22.066 52.607C22.465 52.099 22.638 51.254 22.58 50.488C22.564 50.255 22.512 49.875 22.743 49.854C23.755 49.759 23.461 49.252 23.183 48.686C23.141 48.602 23.257 48.427 23.314 48.306C23.598 47.719 24.169 47.101 24.112 46.552C24.038 45.865 24.458 45.458 24.526 44.914C24.579 44.507 24.846 44.238 24.925 43.868C24.962 43.698 25.239 43.508 25.119 43.371C24.569 42.727 25.061 42.225 25.302 41.696C25.386 41.511 25.418 41.342 25.428 41.152C25.465 40.482 25.14 39.858 25.386 39.123C25.601 38.479 25.449 37.697 25.433 36.978C25.428 36.746 25.428 36.434 25.292 36.308C24.909 35.953 25.056 35.52 24.951 35.129C24.846 34.727 24.374 34.369 24.316 33.909C24.232 33.301 23.834 32.958 23.425 32.683C22.816 32.276 22.055 32.086 21.762 31.283C21.699 31.103 21.468 31.018 21.274 31.061C20.236 31.298 19.386 30.654 18.447 30.448C18.274 30.411 18.054 30.184 17.959 30.236C17.288 30.59 16.606 30.627 15.872 30.49C15.153 30.358 14.524 30.929 13.873 30.955C12.835 30.997 11.901 31.763 10.826 31.351C10.7337 31.3228 10.6353 31.3211 10.542 31.346C8.69602 31.758 7.71502 31.747 5.86402 31.304C5.58602 30.696 5.07702 31.547 4.77802 31.129C4.51602 30.775 4.14302 30.781 3.76002 30.744C3.25702 30.691 3.32002 30.009 2.78002 29.851C2.11302 29.65 1.88302 28.863 1.42602 28.361C1.08002 27.975 1.04902 27.389 0.598017 27.003C0.188017 26.654 0.120017 25.967 0.335017 25.545C0.577017 25.069 0.341017 24.763 0.315017 24.372C0.288017 23.949 -0.346983 23.532 0.262017 23.093C0.047017 22.681 0.377017 22.359 0.425017 22.021C0.571017 20.98 1.12202 20.119 1.45802 19.173C1.65202 18.623 1.86202 18 2.69002 18.021C2.96802 18.026 3.30402 17.762 3.51402 17.53C3.78102 17.234 3.94902 17.382 4.22702 17.477C4.84102 17.688 5.40702 17.281 5.99002 17.171C6.75332 17.0124 7.51051 16.8256 8.26002 16.611C8.89002 16.436 9.62002 16.32 9.90302 15.501C9.99202 15.242 10.264 14.92 10.658 14.925C11.224 14.93 11.508 14.481 11.759 14.111C12.132 13.561 12.447 12.997 13.113 12.754C13.27 12.695 13.364 12.5 13.433 12.304C13.8 11.179 14.057 10.899 15.478 9.99602C15.552 9.94802 15.646 9.90002 15.688 9.82602C16.454 8.40002 17.849 7.53302 18.804 6.26002C19.69 5.07702 20.964 4.20502 22.15 3.27002C23.215 2.43502 24.51 2.06002 25.528 1.18802C25.895 0.876016 26.425 1.10302 26.886 0.971016C27.804 0.707016 28.623 0.158016 29.624 0.100016C29.981 0.0780164 30.306 -0.137984 30.663 0.131016C30.763 0.205016 30.962 0.263016 31.056 0.211016C31.801 -0.195984 32.478 0.163016 33.149 0.401016C33.411 0.496016 33.564 0.385016 33.779 0.348016C34.544 0.216016 35.252 0.0780164 36.049 0.612016C36.6 0.982016 37.398 1.18802 38.101 1.33102C38.609 1.43102 38.951 1.61602 39.307 1.95402C39.811 2.42402 40.162 3.09502 40.985 3.16902C41.4 3.20602 41.405 3.75602 41.641 4.04602C41.841 4.28902 42.161 4.28902 42.349 4.65402C42.743 5.40402 43.603 5.84802 43.823 6.75702C43.849 6.87802 44.007 6.97302 44.117 7.06302C44.862 7.67602 44.794 7.69702 45.239 8.98602C45.533 9.84802 45.916 10.762 46.524 11.396C47.133 12.03 47.185 12.775 47.432 13.488C47.505 13.699 47.526 13.926 47.636 14.143C48.486 15.797 48.796 17.667 49.629 19.337C49.75 19.575 49.729 19.892 49.724 20.177C49.719 20.567 49.719 20.943 50.081 21.202C50.301 21.36 50.296 21.609 50.296 21.852C50.296 22.042 50.254 22.259 50.322 22.422C50.584 23.056 51.04 23.659 51.124 24.308C51.208 24.968 51.418 25.566 51.602 26.184C51.738 26.638 52.242 27.04 51.764 27.574C51.733 27.611 51.801 27.748 51.838 27.827C52.053 28.287 52.042 28.863 52.546 29.169C51.979 29.824 52.677 30.057 52.966 30.416C53.091 30.575 53.206 30.738 53.144 30.929C52.986 31.399 52.834 31.827 53.537 31.964C53.689 31.996 53.694 32.176 53.7 32.318C53.71 33.448 53.71 33.448 54.114 34.183C54.182 34.305 54.261 34.426 54.287 34.558C54.377 35.013 54.046 35.689 54.497 35.885C55.21 36.196 54.707 36.83 55.047 37.237C55.31 37.554 55.216 38.114 55.436 38.553C55.887 39.456 56.239 40.407 56.658 41.327C56.758 41.543 56.947 41.744 56.863 41.982C56.522 42.927 56.941 43.73 57.482 44.364C57.954 44.914 57.964 45.564 58.216 46.15C58.41 46.61 58.236 47.212 58.766 47.55C58.908 47.64 58.898 47.83 58.809 47.93C58.531 48.248 58.667 48.47 58.829 48.808C59.123 49.405 58.966 50.203 59.695 50.631C59.815 50.705 59.973 51.169 59.962 51.386C59.905 52.374 60.429 53.066 60.964 53.785C61.179 54.075 61.294 54.445 61.431 54.789C61.683 55.417 61.793 56.12 62.465 56.501C62.601 56.58 62.695 56.812 62.721 56.987C62.895 57.99 63.671 58.687 64.017 59.602C64.049 59.687 64.112 59.755 64.164 59.834C64.211 59.755 64.29 59.686 64.305 59.602C64.41 59.1 64.211 58.592 64.458 58.059C64.668 57.61 65.36 57.489 65.218 56.844C65.743 56.654 65.816 56.39 65.501 55.893C65.339 55.639 65.695 55.375 65.916 55.222C66.33 54.932 66.724 54.641 66.876 54.123C66.96 53.827 67.143 53.605 67.436 53.531C67.678 53.473 67.741 53.32 67.731 53.119C67.689 52.316 68.271 51.83 68.717 51.328C68.932 51.085 69.189 50.953 69.157 50.578C69.137 50.33 69.215 50.171 69.498 50.049C69.781 49.923 70.133 49.659 70.206 49.389C70.495 48.322 71.481 47.656 71.733 46.589C71.806 46.282 72.178 46.388 72.241 46.171C72.336 45.871 72.719 45.548 72.241 45.221C72.021 45.067 71.942 44.803 72.173 44.618C72.609 44.264 72.613 43.804 72.583 43.318C72.53 42.383 72.771 41.416 72.315 40.518C72.257 40.402 72.252 40.196 72.315 40.095C72.755 39.414 72.325 38.743 72.252 38.093C72.194 37.57 72.042 37.1 72.132 36.529C72.216 35.9631 72.1412 35.385 71.916 34.859C71.843 34.69 71.743 34.5 71.759 34.331C71.869 33.131 71.297 32.001 71.444 30.801C71.481 30.501 71.428 30.231 71.161 30.041C70.899 29.856 70.836 29.581 70.867 29.281C70.92 28.821 70.82 28.419 70.421 28.144C70.007 27.859 69.997 27.431 70.023 26.992C70.065 26.279 70.275 26.168 70.988 26.358C71.508 26.496 72.032 26.559 72.026 27.273C72.026 27.436 72.121 27.531 72.268 27.573C73.159 27.843 73.29 28.715 73.364 29.381C73.443 30.067 73.925 30.442 74.14 30.992C74.224 31.203 74.576 31.309 74.806 31.468C74.602 31.7 74.591 31.98 74.581 32.271C74.56 32.667 74.759 32.941 75.095 33.037C75.604 33.185 75.609 33.576 75.782 33.972C75.982 34.426 75.913 35.029 76.422 35.351C76.647 35.493 76.642 35.8 76.569 36.011C76.379 36.555 76.962 37.057 76.616 37.617C76.506 37.797 76.731 37.956 76.857 38.093C77.114 38.373 77.382 38.648 77.639 38.933C77.885 39.203 77.497 39.663 77.917 39.884C78.022 39.52 78.257 39.34 78.641 39.398C79.191 39.488 79.296 38.975 79.354 38.69C79.474 38.125 79.889 37.892 80.188 37.517C80.555 37.057 80.823 36.761 81.41 36.814C81.683 36.836 81.783 36.544 81.982 36.434C82.506 36.133 82.438 35.42 82.879 35.097C83.309 34.78 83.759 34.537 83.744 33.903C83.739 33.761 83.901 33.718 84.027 33.644C84.804 33.206 85.234 32.582 85.444 31.795C85.574 31.309 85.737 30.812 85.989 30.379C86.162 30.083 86.429 29.909 86.141 29.523C86.068 29.423 86.204 29.069 86.341 28.916C86.702 28.509 87.001 28.113 86.871 27.521C86.8503 27.4264 86.8553 27.328 86.8855 27.236C86.9158 27.144 86.9702 27.0618 87.043 26.998C87.93 26.195 88.035 25.138 88.013 24.034C88.003 23.558 88.061 23.109 88.313 22.671C88.869 21.698 88.989 21.239 89.005 20.098C89.005 19.95 89.015 19.855 89.089 19.748C90.012 18.401 90.206 17.546 90.642 15.939C90.867 15.109 90.988 14.217 91.36 13.429C91.754 12.589 91.843 11.581 92.65 10.968C92.965 10.73 92.844 10.355 92.997 10.059C93.49 9.10802 93.972 8.14602 94.402 7.16402C94.906 6.01702 95.299 4.81202 96.217 3.89802C96.259 2.64102 97.717 2.53002 98.106 1.52602C98.195 1.29402 98.572 1.79602 98.829 1.62602C99.301 1.30402 99.569 1.58402 99.868 1.90102C100.377 2.44502 100.838 2.97902 101.127 3.71902C101.525 4.74402 102.296 5.57902 102.695 6.66202C103.193 8.01402 104.688 8.31502 105.643 7.61802C106.136 7.25802 106.388 6.68302 106.618 6.11202C106.828 5.57902 106.791 4.89702 107.458 4.62202C107.431 4.01502 107.814 3.56002 108.056 3.05802C108.475 2.17602 109.304 1.83302 110.196 1.65302C110.662 1.56302 111.491 2.08102 111.748 2.58802C111.811 2.71002 111.774 2.92602 111.858 2.97902C112.493 3.40202 112.892 3.88302 113.059 4.71702C113.196 5.39902 113.752 6.04402 114.25 6.59302C114.528 6.89902 113.694 7.28002 114.434 7.47502C114.764 7.56002 114.806 8.18902 114.822 8.46302C114.906 10.017 115.834 11.258 116.243 12.68C116.385 13.17 116.736 13.594 116.631 14.154C116.616 14.244 116.605 14.376 116.652 14.428C117.759 15.659 117.549 17.234 117.77 18.698C117.859 19.294 117.943 19.923 118.121 20.478C118.31 21.048 118.31 21.54 118.362 22.031ZM102.905 94.008V95.847C102.905 95.984 103.036 96.19 103.083 96.116C103.398 95.619 103.875 96.412 104.174 95.952C104.347 95.693 104.625 95.677 104.919 95.624C105.596 95.498 106.356 95.418 106.361 94.42C106.361 94.272 106.55 94.082 106.702 93.981C107.426 93.495 107.568 92.809 107.505 91.984C107.468 91.53 107.416 91.07 107.709 90.605C107.972 90.188 107.631 89.57 108.008 89.125C107.61 88.671 107.951 88.053 107.725 87.625C107.473 87.15 107.966 86.669 107.542 86.22C107.353 86.025 107.4 85.575 107.631 85.285C107.757 85.126 107.83 84.963 107.699 84.778C107.384 84.334 107.452 83.922 107.688 83.446C107.909 83.008 107.321 82.601 107.505 82.115C107.521 82.073 107.505 82.009 107.531 81.977C107.935 81.454 107.804 81.016 107.337 80.614C107.174 80.477 107.127 80.213 107.232 80.091C107.615 79.637 107.353 79.209 107.211 78.802C107.038 78.295 107.447 77.851 107.269 77.338C107.043 76.678 107.279 75.975 107.007 75.251C106.802 74.691 107.169 73.909 107.316 73.228C107.547 72.155 107.667 71.098 107.227 70.042C107.145 69.8281 107.092 69.6041 107.069 69.376C107.033 68.959 107.4 68.516 106.975 68.098C106.954 68.077 107.211 67.834 107.18 67.76C106.938 67.13 107.757 66.645 107.374 65.99C107.033 65.403 107.589 64.859 107.51 64.24C107.405 63.39 107.568 62.508 107.463 61.657C107.41 61.213 108.003 60.923 107.631 60.468C107.552 60.373 107.489 60.125 107.531 60.088C107.741 59.914 107.977 59.708 108.229 59.655C108.68 59.57 108.517 59.993 108.627 60.22C108.979 60.939 108.528 61.742 108.911 62.444C108.929 62.4889 108.937 62.537 108.935 62.5852C108.933 62.6333 108.921 62.6806 108.9 62.724C108.528 63.348 108.622 64.014 108.874 64.611C109.015 64.949 108.428 65.181 108.863 65.488C109.152 65.694 109.278 65.958 109.01 66.338C108.785 66.655 108.821 67.136 108.947 67.453C109.419 68.663 109.209 69.878 109.063 71.093C109.036 71.305 109.057 71.421 109.152 71.569C109.724 72.446 108.932 73.482 109.451 74.374C109.477 74.417 109.393 74.575 109.325 74.612C108.848 74.876 109.005 75.252 109.22 75.542C109.503 75.917 109.278 76.213 109.267 76.552C109.257 76.979 108.737 77.243 109.026 77.751C109.388 78.385 109.524 79.821 109.356 80.593C109.304 80.826 109.162 81 109.346 81.233C109.54 81.475 109.587 81.782 109.383 82.02C109.115 82.32 109.236 82.654 109.194 82.976C109.136 83.42 109.356 83.79 109.472 84.186C109.598 84.614 109.063 84.915 109.168 85.396C109.241 85.718 109.204 86.056 109.498 86.299C109.592 86.373 109.745 86.474 109.661 86.632C109.257 87.409 109.524 88.228 109.493 89.031C109.467 89.696 109.461 90.362 109.173 90.959C108.916 91.499 108.895 92.037 108.895 92.608C108.895 92.972 109.052 93.427 108.669 93.675C108.118 94.035 108.528 94.695 108.155 95.096C107.982 95.286 108.192 95.339 108.297 95.356C109.215 95.498 110.238 94.853 110.29 93.997C110.337 93.242 110.626 92.544 110.668 91.778C110.71 91.049 110.736 90.298 110.851 89.554C110.982 88.693 111.082 87.752 110.626 86.902C110.988 86.32 110.505 85.755 110.589 85.158C110.683 84.503 110.379 83.689 110.662 83.177C110.998 82.574 110.332 81.993 110.862 81.497C110.935 81.427 110.856 81.117 110.762 80.974C110.521 80.588 110.704 80.292 110.815 79.917C110.993 79.299 111.234 78.691 111.208 77.994C111.187 77.518 110.563 77.376 110.757 76.921C110.956 76.451 110.982 75.991 110.794 75.542C110.584 75.046 111.182 74.592 110.799 74.094C110.447 73.634 110.605 73.074 110.631 72.568C110.673 71.754 111.019 70.972 110.636 70.116C110.479 69.762 110.704 69.239 110.715 68.79C110.741 67.596 109.944 66.444 110.537 65.213C110.558 65.171 110.384 65.055 110.39 64.981C110.453 64.071 110.043 63.216 110.28 62.26C110.474 61.467 110.227 60.569 110.578 59.76C110.159 59.327 110.4 58.936 110.578 58.471C110.752 58.017 110.437 57.404 110.988 57.034C111.119 56.944 111.145 56.818 111.003 56.707C110.5 56.316 110.578 55.962 111.019 55.56C111.612 55.016 111.586 54.984 111.045 54.16C110.935 53.99 110.809 53.8 110.977 53.658C111.465 53.251 111.161 52.977 110.977 52.538C110.757 52.01 110.662 51.318 111.203 50.805C111.475 50.546 111.607 50.213 111.381 49.917C110.998 49.426 111.051 48.945 111.176 48.39C111.276 47.952 111.381 47.418 111.334 47.038C111.171 45.717 111.003 44.428 111.439 43.128C111.57 42.738 111.134 42.568 111.024 42.272C110.877 41.876 111.628 41.739 111.418 41.337C110.988 40.513 111.229 39.652 111.192 38.807C111.149 37.992 111.146 37.1754 111.182 36.36C111.224 35.568 111.858 34.849 111.47 33.993C111.433 33.913 111.565 33.734 111.654 33.633C112.451 32.73 112.965 31.615 113.836 30.77C114.271 30.353 114.339 29.793 114.366 29.222C114.963 29.032 115.341 28.519 115.415 28.002C115.504 27.368 115.755 26.855 116.002 26.295C116.71 24.684 116.684 24.668 116.61 22.602C116.595 22.19 116.38 21.688 116.448 21.397C116.752 20.124 116.075 19.047 115.866 17.9C115.734 17.181 115.436 16.478 115.446 15.712C115.451 15.432 115.331 15.142 115.315 14.893C115.241 13.773 114.145 13.107 114.114 11.998C113.358 10.978 113.353 9.62002 112.624 8.59002C112.624 7.43802 111.832 6.60402 111.412 5.62602C111.108 4.90802 110.568 4.27902 110.096 3.64002C109.912 3.39102 109.729 3.31202 109.451 3.67102C108.785 4.52102 108.297 5.47802 107.835 6.42902C107.386 7.34292 106.891 8.2334 106.351 9.09702C106.157 9.41402 105.999 9.49402 105.711 9.46702C104.877 9.39302 104.027 9.65202 103.204 9.22902C102.942 9.09702 102.553 9.76902 102.244 9.24002C102.034 8.88602 101.704 8.56902 101.725 8.10402C101.74 7.76102 101.504 7.49102 101.405 7.18402C101.221 6.61902 101.053 5.97002 100.565 5.58402C99.852 5.01902 99.48 4.25202 99.175 3.43902C99.081 3.17902 99.039 3.20102 98.819 3.30702C97.769 3.81902 97.675 5.14002 96.742 5.75802C96.474 5.93802 96.999 6.19102 96.815 6.50302C96.495 7.05302 96.475 7.80302 95.725 8.05102C95.651 8.07802 95.588 8.14102 95.52 8.19402C96.249 9.01302 94.56 9.34602 95.137 10.133C94.439 10.788 94.544 11.924 93.721 12.521C93.191 12.907 93.531 13.504 93.442 14.001C93.353 14.491 92.619 14.619 92.719 15.184C92.755 15.4 92.976 15.691 92.845 15.844C92.441 16.33 92.509 16.854 92.451 17.424C92.388 18.037 92.341 18.829 91.622 19.284C91.36 19.448 91.229 19.924 91.166 20.277C91.076 20.795 91.386 21.429 90.652 21.725C90.573 21.756 90.589 21.978 90.689 22.11C91.072 22.618 90.789 22.977 90.427 23.347C90.138 23.643 89.567 23.865 89.986 24.457C89.666 25.418 89.561 26.453 89.126 27.378C88.953 27.748 88.622 28.044 88.366 28.377C88.869 28.81 88.334 29.148 88.239 29.513C88.182 29.724 87.951 29.893 88.003 30.157C88.103 30.675 87.893 31.045 87.573 31.447C87.363 31.711 87.263 32.123 87.112 32.445C86.519 33.724 86.021 35.065 84.888 36.038C84.599 36.286 84.185 36.091 84.058 36.428C83.948 36.73 83.912 37.052 83.76 37.353C83.634 37.607 83.503 37.723 83.24 37.723C83.026 37.723 82.968 37.893 82.842 38.03C82.228 38.685 81.892 39.646 80.88 39.89C80.765 39.916 80.608 40.09 80.608 40.201C80.608 40.935 80.261 41.247 79.548 41.184C79.344 41.163 79.244 41.274 79.138 41.48C78.908 41.94 78.568 42.34 78.342 42.8C78.237 43.017 78.127 43.371 77.964 43.35C77.502 43.292 77.434 43.424 77.371 43.868C77.324 44.206 76.967 44.512 76.585 44.628C76.181 44.75 76.05 45.157 75.735 45.363C75.341 45.622 75.525 46.066 75.405 46.403C75.247 46.848 74.46 46.488 74.413 47.017C74.355 47.709 73.763 47.857 73.411 48.247C72.908 48.807 72.331 49.294 72.011 50.023C71.754 50.62 71.471 51.254 71.03 51.698C70.747 51.988 70.495 52.178 70.573 52.596C70.668 53.076 70.379 53.23 70.018 53.436C69.362 53.811 68.853 54.329 68.864 55.18C68.869 55.898 68.57 56.532 67.988 56.865C66.97 57.446 66.739 58.36 66.545 59.412C66.409 60.172 65.979 60.875 65.727 61.62C65.591 62.027 65.281 61.868 65.04 61.948C64.966 61.974 64.867 62.08 64.867 62.148C64.83 63.063 64.505 63.881 64.054 64.658C64.521 65.44 63.917 65.878 63.492 66.338C63.246 66.603 63.115 66.861 63.125 67.221C63.135 67.501 63.152 67.771 62.978 68.045C62.711 68.483 62.506 68.965 62.558 69.508C62.5597 69.6473 62.5238 69.7844 62.454 69.905C61.94 70.861 61.924 70.877 61.982 71.665C62.002 71.965 62.002 72.319 61.709 72.42C61.012 72.647 61.132 73.186 61.148 73.693C61.1728 74.732 61.0812 75.7704 60.875 76.789C60.802 77.154 60.372 77.196 60.408 77.724C60.466 78.559 60.246 79.425 60.272 80.287C60.277 80.472 60.262 80.794 60.188 80.815C59.532 81.015 59.805 81.57 59.674 81.983C59.527 82.437 58.914 82.77 59.386 83.373C59.401 83.393 59.239 83.631 59.118 83.679C58.735 83.837 58.667 84.144 58.499 84.498C58.221 85.095 58.153 85.924 57.339 86.178C57.204 86.22 57.135 86.363 57.141 86.516C57.177 87.398 56.705 87.8 55.887 87.921C55.735 87.942 55.557 88.143 55.477 88.301C54.786 89.728 54.607 89.887 53.364 90.368C53.107 90.468 52.677 90.32 52.604 90.626C52.436 91.34 51.954 91.324 51.408 91.34C51.255 91.345 51.009 91.525 50.983 91.662C50.857 92.275 50.385 92.116 49.991 92.227C49.703 92.307 49.325 92.19 49.163 92.349C48.806 92.698 48.502 92.069 48.15 92.396C47.93 92.597 47.505 92.465 47.248 92.729C47.206 92.772 47.044 92.766 46.986 92.719C46.204 92.069 45.266 93.279 44.495 92.513C44.479 92.497 44.337 92.587 44.264 92.645C43.388 93.315 42.302 93.247 41.332 93.263C40.723 93.273 39.994 93.448 39.396 93.057C38.876 92.713 38.394 92.655 37.823 92.993C37.571 93.147 37.178 93.052 36.847 93.078C36.391 93.115 36.097 92.718 35.687 92.628C35.195 92.518 35.022 93.258 34.461 93.078C34.161 92.983 33.8 93.104 33.558 92.782C33.48 92.676 33.291 92.528 33.244 92.555C32.798 92.814 32.357 92.275 31.833 92.665C31.413 92.978 30.983 92.243 30.479 92.185C30.432 92.18 30.369 92.169 30.338 92.19C29.677 92.719 29.037 92.386 28.36 92.196C27.925 92.074 27.463 92.201 26.98 92.021C26.677 91.905 26.34 91.583 25.843 91.81C25.308 92.058 25.129 91.313 24.725 91.123C24.641 91.086 24.547 91.038 24.463 91.049C23.928 91.123 23.623 90.706 23.21 90.521C22.643 90.272 22.218 89.755 21.646 89.623C20.996 89.475 20.681 89.105 20.466 88.55C20.183 87.81 19.527 87.256 19.486 86.39C19.48 86.2756 19.4457 86.1645 19.3862 86.0666C19.3267 85.9687 19.2438 85.8871 19.145 85.829C18.688 85.549 18.321 85.126 17.907 84.778C17.707 84.608 17.513 84.249 17.209 84.492C16.821 84.799 16.055 84.582 15.998 85.285C15.961 85.729 15.625 85.929 15.478 86.262C15.326 86.611 15.72 87.023 15.394 87.403C14.791 88.122 15.079 88.867 15.494 89.506C16.081 90.404 16.574 91.361 17.151 92.259C17.524 92.835 17.938 93.511 18.699 93.617C19.165 93.68 19.527 93.765 19.69 94.24C19.769 94.473 19.942 94.494 20.136 94.494C20.86 94.489 21.353 94.927 21.851 95.376C22.092 95.593 22.255 95.873 22.627 95.963C23.472 96.163 24.29 96.549 25.14 96.628C25.607 96.671 26.063 96.745 26.52 96.835C27.049 96.94 27.421 97.833 28.12 97.167C28.13 97.157 28.26 97.267 28.329 97.337C28.879 97.907 29.551 97.727 30.18 97.579C30.395 97.527 30.637 97.305 30.83 97.426C31.355 97.754 31.927 97.77 32.473 97.664C33.044 97.553 33.543 98.177 33.952 97.923C34.565 97.543 35.012 98.007 35.536 97.992C36.228 97.976 36.957 97.775 37.608 98.24C37.702 98.309 37.928 98.298 38.022 98.23C38.4 97.955 38.887 97.801 39.218 98.028C39.811 98.435 39.884 97.643 40.272 97.685C40.414 97.701 40.592 97.653 40.687 97.727C41.08 98.044 41.421 97.991 41.851 97.754C42.113 97.611 42.507 97.638 42.827 97.68C43.414 97.76 44.227 97.801 44.578 97.653C44.967 97.49 45.313 97.225 45.753 97.558C46.058 97.791 46.346 97.574 46.666 97.484C47.233 97.326 47.83 96.834 48.386 97.167C48.869 97.457 49.268 97.173 49.661 97.257C50.149 97.363 50.547 97.241 50.993 97.21C51.507 97.173 52.043 96.908 52.573 97.104C53.143 97.315 53.705 97.257 54.272 97.109C54.345 97.093 54.455 97.157 54.523 97.209C54.953 97.532 55.315 97.431 55.63 97.04C55.7196 96.9259 55.8422 96.8424 55.9812 96.8008C56.1201 96.7593 56.2685 96.7618 56.406 96.808C57.256 97.078 58.216 96.253 59.013 97.072C59.055 97.115 59.281 97.03 59.38 96.956C59.57 96.813 59.726 96.623 59.915 96.481C59.999 96.417 60.151 96.174 60.215 96.396C60.45 97.21 60.865 96.539 61.19 96.539C61.856 96.544 62.538 96.443 63.183 96.565C63.582 96.639 63.896 96.739 64.343 96.697C64.898 96.644 65.475 96.882 66.031 96.528C66.178 96.433 66.409 96.496 66.551 96.655C66.901 97.045 67.227 97.178 67.788 96.94C68.177 96.776 68.717 97.083 69.031 96.512C69.204 96.2 69.671 96.042 69.871 96.354C70.306 97.024 70.726 96.824 71.281 96.591C71.507 96.496 71.733 96.131 72.141 96.449C72.488 96.719 73.065 97.067 73.437 96.766C73.915 96.375 74.439 96.946 74.812 96.528C75.242 96.052 75.677 96.728 76.081 96.502C76.485 96.274 76.847 95.962 77.256 95.73C77.403 95.646 77.628 95.646 77.806 95.677C78.389 95.783 79.06 95.186 79.564 95.894C79.941 95.746 80.314 95.091 80.702 95.884C81.242 95.503 81.824 95.514 82.47 95.545C83.099 95.577 84.195 95.577 84.652 95.862C85.166 96.185 85.664 96.232 86.178 95.872C86.33 95.767 86.529 95.73 86.676 95.619C86.965 95.392 87.185 95.308 87.546 95.566C87.946 95.852 88.449 96.185 88.863 95.514C88.973 95.334 89.1 95.498 89.204 95.566C89.561 95.788 89.881 95.873 90.332 95.683C90.678 95.535 91.103 95.931 91.539 95.493C91.832 95.197 92.477 95.191 92.849 95.535C93.489 96.126 94.082 95.92 94.796 95.709C95.378 95.54 96.112 94.922 96.684 95.857C96.757 95.978 97.161 96.005 97.344 95.926C97.707 95.767 98.001 95.799 98.368 95.91C98.824 96.047 99.244 95.947 99.144 95.286C99.097 94.954 99.27 94.658 99.532 94.589C100.151 94.43 99.989 93.971 100.004 93.575C100.025 93.125 99.915 92.793 99.516 92.475C98.814 91.91 97.827 92 97.166 91.361C97.083 91.281 96.768 91.34 96.642 91.435C96.049 91.895 95.42 91.825 94.885 91.461C94.434 91.155 94.203 91.746 93.852 91.572C93.516 91.408 93.196 91.197 92.85 91.076C92.698 91.023 92.456 91.081 92.32 91.176C92.053 91.366 91.77 91.271 91.497 91.324C90.799 91.461 90.6 90.552 90.097 90.574C89.603 90.594 89.189 91.287 88.559 90.891C88.239 90.69 87.966 90.838 87.636 90.896C87.017 91.006 86.466 91.461 85.769 91.239C84.719 90.901 83.655 90.849 82.653 91.419C82.459 91.529 82.333 91.593 82.186 91.398C81.903 91.023 81.656 91.007 81.232 91.292C80.88 91.53 80.502 91.229 80.309 90.864C80.204 90.664 80.199 90.415 80.13 90.188C79.9 89.432 79.952 89.263 80.655 89.041C81.363 88.82 82.05 88.598 82.59 88.021C82.795 87.805 83.256 87.557 83.445 87.647C84.169 87.995 84.662 87.451 85.008 87.139C85.632 86.579 86.005 85.797 87.028 85.723C87.395 85.697 87.678 85.015 88.082 84.815C88.507 84.603 88.606 84.36 88.565 83.943C88.512 83.393 88.701 82.992 89.32 82.981C89.797 82.976 89.792 82.521 89.892 82.273C90.049 81.883 90.149 81.502 90.442 81.158C90.867 80.656 91.423 80.213 91.418 79.452C92.142 79.193 91.968 78.58 91.968 78.036C91.974 77.191 92.241 76.35 91.738 75.5C91.538 75.162 91.733 74.528 91.838 74.116C91.979 73.556 92.089 73.091 91.701 72.673C91.25 72.182 92.021 71.601 91.533 71.146C91.496 71.115 91.46 71.083 91.433 71.041C90.998 70.322 90.447 69.651 90.563 68.721C90.594 68.451 90.406 68.293 90.248 68.114C89.661 67.448 88.617 67.067 88.811 65.884C88.816 65.852 88.769 65.778 88.738 65.773C87.956 65.636 88.066 64.843 87.736 64.373C87.605 64.188 87.578 63.993 87.311 63.887C87.064 63.792 86.875 63.527 86.676 63.327C86.493 63.137 86.456 62.851 86.587 62.667C86.707 62.497 87.033 62.286 87.159 62.339C87.809 62.624 88.685 62.587 89.073 63.263C89.373 63.781 89.818 64.209 90.002 64.822C90.122 65.229 90.242 65.742 90.909 65.742C91.04 65.742 91.47 66.201 91.203 66.639C91.087 66.829 91.14 67.062 91.355 67.078C92.309 67.141 92.425 67.881 92.545 68.573C92.64 69.107 92.881 69.53 93.185 69.958C93.39 70.248 93.778 70.57 93.437 71.041C93.395 71.099 93.49 71.358 93.574 71.395C94.203 71.68 94.234 72.225 94.261 72.805C94.277 73.112 94.502 73.508 94.381 73.698C94.109 74.11 94.491 74.301 94.528 74.596C94.57 74.924 94.591 75.246 94.366 75.553C93.804 76.324 94.287 77.343 93.799 78.147C93.773 78.189 93.825 78.316 93.873 78.363C94.161 78.643 94.413 78.971 94.187 79.363C93.988 79.716 93.962 80.233 93.463 80.35C93.159 80.424 93.102 80.609 93.128 80.868C93.165 81.232 92.928 81.465 92.776 81.761C92.367 82.559 91.544 82.981 91.124 83.763C90.941 84.107 90.946 84.583 90.421 84.73C89.865 84.889 90.222 85.507 89.981 85.866C89.85 86.056 89.718 86.077 89.541 86.136C88.963 86.32 88.36 86.479 88.176 87.197C88.1501 87.2645 88.1093 87.3252 88.0567 87.3747C88.004 87.4242 87.9409 87.4612 87.872 87.483C86.792 87.72 86.152 88.761 85.092 89.031C84.961 89.062 84.819 89.121 84.977 89.29C85.04 89.358 85.113 89.422 85.187 89.485C85.365 89.638 85.57 89.617 85.68 89.448C85.958 89.031 86.262 89.121 86.629 89.306C86.765 89.374 86.933 89.702 87.08 89.464C87.531 88.73 88.391 89.311 88.874 88.856C89.461 88.302 90.122 88.851 90.668 88.672C91.192 88.497 91.434 88.73 91.67 89.02C91.796 89.179 91.916 89.39 92.073 89.295C92.997 88.708 93.752 89.385 94.549 89.623C94.995 89.755 95.331 89.855 95.85 89.728C96.322 89.618 96.883 89.887 97.287 89.358C97.319 89.316 97.497 89.327 97.549 89.374C97.959 89.754 98.452 89.575 98.913 89.601C99.102 89.612 99.312 89.607 99.38 89.829C99.59 90.547 100.308 90.547 100.796 90.875C101.017 91.023 101.137 90.97 101.116 90.695C101.079 90.135 101.158 89.591 100.87 89.036C100.56 88.45 101.148 87.868 101.106 87.25C101.1 87.166 101.032 87.076 100.975 87.007C100.739 86.707 100.728 86.262 100.891 86.061C101.237 85.639 100.786 85.369 100.807 85.015C100.838 84.572 101.174 84.255 101.127 83.795C101.09 83.409 101.132 83.029 100.78 82.759C100.461 82.511 100.461 82.089 100.592 81.84C100.901 81.227 100.938 80.693 100.565 80.112C100.476 79.975 100.482 79.706 100.649 79.579C101.373 79.024 101.132 78.427 100.718 77.851C100.529 77.587 100.607 77.296 100.534 77.037C100.382 76.498 100.948 76.028 100.707 75.558C100.44 75.035 100.613 74.522 100.555 74.015C100.529 73.783 100.529 73.519 100.618 73.318C101.043 72.351 100.77 71.363 100.749 70.38C100.733 69.704 100.308 69.033 100.812 68.34C100.948 68.15 100.954 67.701 100.822 67.506C100.324 66.787 100.718 66.138 100.948 65.519C101.09 65.134 101.116 64.912 100.817 64.659C100.487 64.379 100.508 64.114 100.817 63.823C100.927 63.718 101.142 63.639 100.985 63.38C100.497 62.56 101.142 61.684 100.864 60.828C100.723 60.394 101.274 59.903 101.845 59.935C102.459 59.972 102.312 60.426 102.123 60.759C101.987 60.997 102.207 61.087 102.212 61.239C102.233 61.99 102.454 62.756 102.066 63.475C102.008 63.5791 101.977 63.6963 101.977 63.8155C101.977 63.9347 102.008 64.0519 102.066 64.156C102.658 65.313 102.113 66.502 102.087 67.659C102.071 68.33 102.018 68.938 102.302 69.545C102.396 69.751 102.627 69.899 102.511 70.179C102.092 71.183 102.176 72.203 102.448 73.223C102.066 73.74 102.884 74.47 102.144 74.929C101.95 75.051 102.165 75.151 102.186 75.262C102.275 75.812 102.333 76.377 102.653 76.858C102.758 77.021 102.921 77.212 102.774 77.365C102.197 77.978 102.622 78.675 102.569 79.325C102.538 79.7 102.496 80.065 102.417 80.435C102.265 81.195 101.851 82.004 102.464 82.781C102.653 83.023 102.522 83.303 102.407 83.583C102.249 83.964 102.805 84.043 102.816 84.376C102.821 84.466 102.8 84.598 102.742 84.635C102.076 85.079 102.333 85.581 102.648 86.083C102.716 86.193 102.768 86.273 102.7 86.442C102.459 87.044 102.622 87.758 102.218 88.328C102.118 88.471 101.934 88.613 102.165 88.778C102.637 89.115 102.527 89.607 102.548 90.077C102.574 90.717 102.317 91.44 102.989 91.931C103.099 92.011 103.052 92.064 102.994 92.169C102.737 92.777 103.041 93.469 102.905 94.008ZM31.266 1.98002C29.687 1.79502 27.38 2.56602 26.246 3.15202C25.428 3.57502 24.694 4.18202 23.739 4.29402C23.6473 4.31039 23.562 4.35233 23.493 4.41502C22.26 5.47202 20.959 6.44502 19.758 7.54302C19.302 7.96002 19.26 8.71602 18.573 8.90102C17.817 10.095 16.527 10.792 15.767 11.986C15.693 12.097 15.615 12.319 15.562 12.314C14.948 12.234 15.017 12.774 14.775 13.069C14.534 13.371 14.015 13.519 13.847 13.894C13.543 14.581 12.892 14.94 12.499 15.521C12.074 16.155 11.303 16.356 10.831 16.99C10.453 17.492 9.71902 17.83 9.07902 17.999C8.65402 18.109 8.50702 18.865 7.92502 18.469C6.80538 18.7259 5.66715 18.8938 4.52102 18.971C4.08602 19.003 3.92302 19.214 4.06502 19.616C4.12802 19.79 4.20102 19.986 4.32202 20.118C4.86702 20.683 5.03002 21.285 4.62102 22.004C4.55802 22.109 4.60502 22.289 4.62102 22.432C4.74702 23.478 4.61502 23.457 4.12802 24.292C3.71302 25.005 3.19402 25.269 2.45402 25.317C2.07202 25.343 1.92402 25.544 2.18202 25.867C2.38102 26.114 2.64302 26.31 2.40702 26.669C3.32002 27.16 3.76602 28.117 4.47402 28.814C4.69402 29.026 4.83002 28.946 5.05602 28.835C5.27102 28.73 5.49102 28.65 5.64302 28.46C6.40402 27.536 7.08102 26.527 8.16602 25.935C8.59102 25.026 9.67202 24.915 10.259 24.202C10.369 24.07 10.579 24.012 10.747 23.938C11.072 23.8 11.267 24.107 11.513 24.207C11.896 24.366 11.503 24.587 11.45 24.746C11.287 25.232 10.994 25.655 10.485 25.829C10.008 25.993 9.71402 26.368 9.37302 26.696C8.72302 27.319 8.21302 28.09 7.38502 28.518C7.11702 28.661 7.13302 28.909 7.18502 29.137C7.23802 29.364 7.44802 29.369 7.64202 29.358C8.81702 29.29 10.007 29.543 11.172 29.216C11.34 29.168 11.413 29.2 11.523 29.269C12.21 29.691 12.813 29.464 13.37 29.004C13.569 28.841 13.81 28.682 14.004 28.804C14.482 29.094 14.838 29.052 15.211 28.634C15.421 28.402 15.761 28.46 16.024 28.508C16.522 28.603 17.188 28.117 17.492 28.915C18.027 28.851 18.552 28.714 19.097 28.767C19.307 28.787 19.454 28.888 19.575 29.037C19.853 29.385 20.194 29.501 20.566 29.242C21.096 28.878 21.411 29.158 21.778 29.528C22.218 29.977 22.727 30.362 23.204 30.78C23.939 30.537 23.991 31.334 24.337 31.62C24.883 32.074 25.428 32.666 25.449 33.49C25.459 33.997 25.937 34.172 26.121 34.536C26.325 34.938 25.743 35.535 26.094 35.82C26.829 36.417 26.351 37.12 26.414 37.764C26.43 37.923 26.357 38.087 26.435 38.277C26.677 38.863 26.65 39.45 26.451 40.068C26.32 40.469 26.341 40.924 26.325 41.352C26.315 41.674 26.703 41.975 26.225 42.329C25.937 42.541 26.483 42.948 26.273 43.339C25.953 43.93 25.601 44.538 26.005 45.262C26.089 45.41 25.968 45.616 25.885 45.795C25.565 46.455 25.418 47.185 25.035 47.825C24.725 48.337 24.353 48.886 24.731 49.531C24.825 49.694 24.788 49.795 24.678 49.874C24.196 50.212 24.295 50.709 24.311 51.179C24.337 51.903 24.175 52.589 23.729 53.149C23.414 53.541 23.404 53.911 23.519 54.344C23.551 54.46 23.797 54.598 23.614 54.682C22.932 55.02 23.404 55.665 23.236 56.146C23.146 56.399 23.43 56.796 23.016 57.06C22.932 57.112 22.869 57.382 22.916 57.435C23.351 57.91 23.12 58.269 22.68 58.444C22.113 58.671 22.229 59.067 22.475 59.321C22.885 59.754 22.995 60.081 22.485 60.489C22.397 60.562 22.307 60.795 22.349 60.853C22.832 61.503 22.48 61.778 21.899 61.989C21.746 62.042 21.715 62.285 21.793 62.354C22.182 62.708 22.166 63.099 22.019 63.553C21.883 63.976 22.265 64.33 22.077 64.863C21.835 65.534 21.982 66.327 21.788 67.083C21.652 67.621 22.145 68.276 21.489 68.821C21.342 68.942 21.337 69.502 21.646 69.735C22.119 70.089 21.866 70.321 21.599 70.627C21.169 71.119 21.012 71.79 21.227 72.35C21.405 72.82 21.489 73.11 21.08 73.438C20.855 73.618 21.054 73.745 21.159 73.882C21.269 74.03 21.552 74.204 21.426 74.337C21.001 74.791 21.526 75.214 21.406 75.62C21.274 76.075 21.4 76.534 21.216 77.01C21.038 77.475 21.127 78.045 21.652 78.405C21.83 78.532 22.15 78.833 21.998 78.955C21.515 79.35 22.224 79.958 21.688 80.307C21.489 80.439 21.363 80.677 21.578 80.914C21.757 81.115 21.846 81.427 21.715 81.569C21.321 82.009 21.547 82.409 21.772 82.721C22.061 83.118 22.119 83.567 22.019 83.941C21.809 84.724 22.564 85.58 21.814 86.298C21.809 86.303 21.877 86.367 21.893 86.409C22.098 86.975 22.203 87.566 22.633 88.047C23.1289 88.6092 23.7632 89.0318 24.473 89.273C25.083 89.489 25.685 89.865 26.336 89.431C26.525 89.304 26.577 89.463 26.687 89.505C27.054 89.637 27.264 89.537 27.097 89.13C27.007 88.908 26.887 88.713 26.902 88.465C26.934 88.052 26.776 87.64 27.07 87.228C27.469 86.668 26.514 86.547 26.608 86.028C26.65 85.796 26.603 85.548 26.603 85.31C26.603 84.592 26.608 83.868 26.603 83.15C26.603 82.764 26.75 82.198 26.561 82.035C25.948 81.506 26.357 80.925 26.32 80.381C26.288 79.852 26.205 79.292 26.346 78.806C26.498 78.283 26.309 77.834 26.309 77.353C26.309 76.83 26.677 76.281 26.209 75.789C26.099 75.673 26.163 75.573 26.189 75.43C26.43 74.067 26.435 72.73 25.906 71.404C25.643 70.749 25.523 70.02 26.146 69.434C26.299 69.291 26.409 69.058 26.304 68.921C25.801 68.292 26.424 67.479 25.932 66.839C25.68 66.517 26.021 66.232 26.21 66.02C26.372 65.835 27.39 65.93 27.4 66.084C27.474 66.881 28.172 67.579 27.967 68.329C27.841 68.799 28.282 69.217 28.004 69.481C27.474 69.983 28.067 70.353 28.03 70.781C27.972 71.478 28.177 72.207 27.762 72.862C28.114 73.375 27.988 73.956 28.025 74.516C28.061 75.039 28.093 75.573 28.219 76.08C28.329 76.513 28.339 76.862 28.14 77.295C27.904 77.813 27.846 78.405 28.387 78.854C28.539 78.981 28.696 79.229 28.586 79.345C28.066 79.9 28.712 80.539 28.376 81.152C28.114 81.633 28.466 82.24 28.544 82.79C28.612 83.281 28.109 83.868 28.203 84.338C28.282 84.729 28.193 85.183 28.45 85.564C28.623 85.823 28.717 86.156 28.78 86.473C28.984 87.503 29.572 88.528 28.78 89.574C28.596 89.817 28.87 90.15 29.278 90.161C30.212 90.187 31.156 90.097 32.063 90.446C32.2455 90.508 32.4436 90.5062 32.625 90.441C32.908 90.335 33.16 90.287 33.008 89.759C32.834 89.178 32.441 88.655 32.399 88.105C32.357 87.55 32.331 86.885 32.782 86.351C33.307 85.733 32.331 85.125 32.692 84.475C32.714 84.433 32.751 84.396 32.777 84.359C33.034 83.958 32.918 83.519 32.85 83.112C32.813 82.901 32.493 82.663 32.64 82.473C33.244 81.675 32.457 80.772 32.887 79.963C33.117 79.53 32.473 79.16 32.677 78.769C33.28 77.623 32.504 76.587 32.462 75.494C32.446 75.114 32.268 74.791 32.604 74.49C32.934 74.194 32.944 73.877 32.782 73.465C32.515 72.788 32.53 72.085 32.772 71.394C32.813 71.267 32.902 71.05 32.856 71.014C32.247 70.49 32.32 70.02 32.861 69.486C32.981 69.365 32.987 68.963 32.876 68.794C32.231 67.801 32.986 66.855 32.929 65.883C32.913 65.587 33.306 65.608 33.506 65.698C33.842 65.846 34.486 67.251 34.282 67.521C33.91 68.017 34.12 68.377 34.308 68.826C34.382 68.995 34.649 69.143 34.461 69.439C34.088 70.009 34.419 70.522 34.681 71.024C34.791 71.23 35.017 71.431 34.791 71.652C34.02 72.413 34.282 73.349 34.434 74.199C34.497 74.553 34.377 74.807 34.387 75.076C34.413 75.673 33.831 76.206 34.099 76.709C34.502 77.459 34.078 78.278 34.371 78.939C34.723 79.726 34.534 80.37 34.351 81.109C34.2445 81.5294 34.2775 81.973 34.445 82.373C34.697 82.949 34.77 83.567 34.435 84.148C34.277 84.423 34.282 84.74 34.345 84.978C34.565 85.802 34.245 86.647 34.382 87.398C34.502 88.063 34.03 88.75 34.529 89.368C34.769 89.669 36.139 90.731 36.585 90.874C36.674 90.9 36.742 90.99 36.831 91.011C37.739 91.254 38.683 91.181 39.601 91.228C39.994 91.248 40.702 91.561 41.007 90.816C41.08 90.641 41.332 90.847 41.499 90.884C42.37 91.069 43.257 91.217 44.096 90.81C44.379 90.673 44.526 90.356 44.946 90.604C45.234 90.779 45.575 90.229 45.963 90.525C46.44 90.89 46.907 90.826 47.39 90.467C47.626 90.287 48.198 90.641 48.192 90.271C48.187 89.944 47.742 89.621 47.484 89.304C47.464 89.278 47.395 89.289 47.348 89.294C46.802 89.304 46.608 88.887 46.514 88.475C46.383 87.878 46.042 87.503 45.512 87.292C45.307 87.212 45.161 87.117 45.197 86.901C45.318 86.124 45.019 85.632 44.29 85.352C44.054 85.262 44.101 84.951 44.028 84.729C43.713 83.767 43.634 82.684 42.722 81.998C42.638 81.934 42.674 81.728 42.617 81.601C42.192 80.645 42.213 79.599 42.061 78.595C41.914 77.628 41.583 76.593 42.313 75.679C42.36 75.62 42.354 75.472 42.318 75.399C42.014 74.775 42.496 74.078 42.077 73.428C41.914 73.174 41.909 72.667 42.16 72.334C42.386 72.028 42.328 71.7 42.318 71.373C42.292 70.548 42.564 69.856 42.973 69.133C43.461 68.266 44.002 67.336 44.007 66.311C44.012 65.571 44.374 65.175 44.809 64.736C45.082 64.462 45.439 64.377 45.675 64.657C45.879 64.9 46.063 65.286 45.769 65.629C45.329 66.137 45.176 66.76 45.019 67.394C44.862 68.023 44.851 68.71 44.395 69.227C43.917 69.767 44.269 70.427 44.091 71.007C43.965 71.415 44.232 71.927 43.907 72.25C43.461 72.693 44.18 73.132 43.834 73.533C44.144 74.353 44.201 75.166 43.76 75.958C44.07 76.534 43.692 77.253 44.18 77.824C44.39 78.067 44.7 78.41 44.52 78.822C44.112 79.789 44.584 80.539 45.16 81.194C45.56 81.654 45.869 82.209 45.995 82.711C46.32 84.005 46.986 84.925 48.119 85.569C48.397 85.728 48.848 86.113 48.801 86.229C48.481 87.075 49.425 87.038 49.598 87.503C50.317 87.498 50.542 87.994 50.605 88.581C50.652 88.998 50.905 89.003 51.193 89.003C51.334 89.003 51.486 88.972 51.618 89.013C52.079 89.151 52.153 88.295 52.677 88.613C52.834 88.707 52.929 88.549 53.013 88.459C53.453 87.973 54.393 88.015 54.423 87.096C55.09 86.821 55.635 86.436 55.813 85.675C56.553 85.479 56.653 84.893 56.679 84.253C56.679 84.201 56.821 84.143 56.899 84.111C57.382 83.937 57.529 83.572 57.455 83.097C57.382 82.6 58.232 82.706 58.053 82.114C57.923 81.691 58.132 81.3 58.31 80.904C58.483 80.524 58.279 79.969 58.599 79.689C59.081 79.266 58.352 78.833 58.657 78.563C59.123 78.141 59.05 77.707 58.908 77.211C58.793 76.804 59.254 76.519 59.17 76.133C59.097 75.795 58.871 75.52 59.406 75.303C59.721 75.177 58.971 74.765 59.433 74.473C59.816 74.236 59.769 73.824 59.769 73.443C59.769 73.105 59.799 72.767 59.758 72.435C59.711 72.085 60.041 71.711 59.926 71.525C59.58 70.95 60.419 71.245 60.346 70.839C60.283 70.517 60.236 70.152 60.734 69.904C61.195 69.671 60.424 69.27 60.618 68.91C60.833 68.514 60.723 67.938 61.168 67.7C61.442 67.553 61.547 67.357 61.473 67.146C61.179 66.3 62.203 65.65 61.793 64.789C61.741 64.673 61.893 64.557 62.045 64.504C62.643 64.298 62.013 63.299 62.842 63.236C62.822 63.194 62.811 63.151 62.784 63.114C62.48 62.671 62.643 62.311 62.978 61.978C63.131 61.825 63.198 61.72 62.9 61.603C62.28 61.36 61.95 60.916 61.693 60.23C61.447 59.57 61.111 58.977 61.185 58.238C61.205 58.011 60.995 57.968 60.859 57.847C60.592 57.609 60.246 57.213 60.398 56.907C60.891 55.918 59.852 55.67 59.627 55.047C59.212 55.369 59.239 55.067 59.191 54.767C58.992 53.541 58.483 52.431 57.775 51.443C57.35 50.851 57.209 50.165 56.941 49.525C56.821 49.24 56.988 48.828 56.863 48.543C56.239 47.106 55.893 45.558 55.132 44.179C54.985 43.909 54.98 43.729 55.069 43.412C55.494 41.87 55.237 41.188 53.962 39.978C53.742 39.767 53.427 39.386 53.642 39.186C54.229 38.631 53.768 38.282 53.516 37.876C53.322 37.558 52.986 37.268 52.934 36.93C52.74 35.736 52.174 34.637 52.058 33.427C52.038 33.189 52.068 32.946 51.858 32.772C51.277 32.291 51.555 31.271 50.721 30.932C50.631 30.896 50.616 30.579 50.637 30.399C50.694 29.829 50.904 29.248 50.364 28.772C50.317 28.73 50.364 28.587 50.343 28.492C50.164 27.541 50.201 26.537 49.54 25.712C49.42 25.565 49.414 25.2 49.514 25.021C49.797 24.508 49.561 24.181 49.21 23.885C48.832 23.568 48.607 23.261 48.89 22.738C48.99 22.558 48.963 22.094 48.874 22.057C48.009 21.697 48.324 20.847 48.072 20.244C47.825 19.647 47.762 18.982 47.243 18.48C47.033 18.274 46.865 17.872 46.918 17.434C47.054 16.314 47.007 16.287 46.089 15.394C45.916 15.225 45.774 15.061 45.753 14.792C45.675 13.693 45.313 12.747 44.316 12.15C44.101 12.018 44.043 11.78 44.043 11.527C44.043 11.342 44.053 11.062 43.949 10.993C43.304 10.57 43.183 9.81502 42.863 9.21802C42.265 8.10302 41.358 7.19402 40.907 5.99502C40.718 5.48802 40.277 5.16502 39.853 4.87002C39.433 4.57902 38.898 4.40502 38.583 4.03502C37.796 3.10002 36.611 3.04202 35.62 2.59202C34.235 1.97402 32.703 1.92702 31.266 1.98002ZM73.805 43.608C73.899 43.714 73.972 43.846 74.083 43.904C74.287 44.014 74.586 43.756 74.602 43.476C74.612 43.302 74.512 43.222 74.355 43.212C74.072 43.19 73.967 43.434 73.805 43.608Z" fill="#284855"/>
<path d="M110.516 25.884C109.907 25.884 109.325 25.952 108.806 25.419C108.481 25.08 107.846 25.234 107.599 25.699C107.374 26.126 107.106 26.189 106.718 26.189C106.535 26.189 106.309 26.174 106.173 26.264C105.302 26.85 104.814 25.947 104.153 25.736C103.991 25.683 103.996 25.302 104.169 25.102C104.347 24.895 104.536 24.578 104.856 24.842C105.417 25.302 105.8 24.748 106.262 24.637C106.225 23.955 107.185 24.415 107.19 23.817C107.201 23.257 107.678 23.03 107.951 22.661C108.092 22.465 108.008 22.322 107.919 22.148C107.745 21.8171 107.586 21.4788 107.442 21.134C107.18 20.5 107.568 19.85 108.213 19.834C108.69 19.824 109.168 19.813 109.64 19.85C110.201 19.897 110.5 20.267 110.29 20.827C110.164 21.16 110.458 21.651 109.923 21.857C109.53 22.005 109.54 22.487 109.315 22.782C109.168 22.972 109.231 23.136 109.367 23.289C109.97 23.96 110.526 24.726 111.612 24.462C111.705 24.4434 111.8 24.438 111.895 24.446C112.331 24.473 112.535 24.885 112.252 25.228C111.958 25.588 111.675 26.016 111.087 25.883C110.904 25.852 110.705 25.883 110.516 25.883V25.884ZM113.06 18.254C112.808 18.682 112.546 18.931 112.305 18.984C112.215 19.004 112.116 18.989 112.021 18.984C111.749 18.967 111.423 19.063 111.266 18.783C111.11 18.4972 111.007 18.1855 110.962 17.863C110.888 17.414 111.591 16.753 112.142 16.685C112.236 16.675 112.441 16.775 112.614 16.933C113.023 17.308 113.223 17.974 113.06 18.254ZM104.033 17.182C104.5 17.15 105.108 17.747 105.203 18.175C105.276 18.524 104.699 19.454 104.337 19.522C103.98 19.586 103.482 19.375 103.341 19.2C103.099 18.91 103.131 18.112 103.257 17.715C103.32 17.509 103.813 17.198 104.033 17.182ZM29.756 23.342C30.27 22.555 29.955 21.72 29.803 20.832C29.683 20.119 29.598 19.327 29.944 18.587C30.123 18.207 30.081 17.768 29.954 17.34C29.719 16.532 29.331 15.681 30.458 15.18C30.653 15.095 30.605 14.852 30.621 14.667C30.653 14.292 30.485 13.885 30.721 13.547C30.878 13.325 30.784 13.193 30.631 13.097C30.071 12.743 30.049 12.3 30.437 11.835C30.695 11.528 30.584 11.201 30.611 10.878C30.721 9.69504 31.156 8.62804 31.785 7.64504C31.948 7.39104 32.153 7.41804 32.31 7.70304C32.4 7.86704 32.168 8.27904 32.53 8.17904C32.766 8.11504 33.26 8.08904 33.18 7.57604C33.034 6.67804 33.648 6.09204 34.036 5.39904C34.23 5.05604 34.497 5.09904 34.749 5.19304C35.053 5.31004 35.42 5.57904 35.52 5.76404C36.102 6.84204 37.204 7.61404 37.214 9.05004C37.219 9.70004 37.686 10.35 38.148 10.905C38.426 11.243 38.782 11.665 38.185 12.073C38.148 12.099 38.127 12.146 38.095 12.183C38.851 12.448 38.08 13.23 38.562 13.583C38.924 13.848 38.961 14.223 38.892 14.613C38.803 15.121 39.034 15.538 39.244 15.956C39.375 16.215 39.585 16.416 39.318 16.706C39.108 16.933 39.202 17.139 39.402 17.319C39.822 17.699 39.847 18.075 39.522 18.571C39.365 18.814 39.449 19.189 39.575 19.527C39.716 19.924 40.304 20.246 39.858 20.785C40.083 21.213 40.031 21.609 39.889 22.075C39.842 22.227 39.873 22.449 39.727 22.624C39.47 22.919 38.929 23.12 39.375 23.659C39.092 24.066 39.275 24.419 39.48 24.785C39.617 25.027 39.821 25.245 39.769 25.566C39.732 25.794 39.779 26 39.522 26.174C38.599 26.814 38.426 27.733 38.756 28.747C38.893 29.154 39.071 29.418 38.431 29.154C38.373 29.128 38.153 29.397 38.074 29.561C37.744 30.216 37.235 30.697 36.627 31.061C36.37 31.215 36.212 31.41 36.034 31.627C35.672 32.06 35.258 32.446 34.624 32.081C34.544 32.033 34.419 31.938 34.387 31.959C33.217 32.874 32.772 31.167 31.817 31.225C31.587 31.241 31.465 30.835 31.476 30.517C31.529 29.349 31.266 28.272 30.5 27.368C30.285 27.115 30.301 26.818 30.338 26.549C30.453 25.719 30.243 24.954 29.913 24.224C29.782 23.944 29.771 23.691 29.756 23.342ZM37.183 20.521C37.183 20.351 37.141 20.167 37.015 20.22C36.821 20.299 36.616 20.447 36.642 20.727C36.658 20.88 36.726 20.975 36.894 20.97C37.251 20.96 37.157 20.685 37.183 20.52V20.521ZM35.132 8.74904C35.064 8.70204 35.006 8.62204 34.932 8.61704C34.864 8.60704 34.728 8.65404 34.717 8.70204C34.676 8.87104 34.812 8.89704 34.933 8.87604C35.001 8.86004 35.063 8.79104 35.132 8.74904ZM36.726 19.057C36.59 19.163 36.616 19.284 36.669 19.411C36.685 19.448 36.721 19.48 36.753 19.511C36.8 19.395 36.858 19.284 36.883 19.168C36.889 19.142 36.779 19.094 36.726 19.058V19.057ZM21.28 15.306C20.807 15.798 20.42 15.296 20.115 15.053C19.775 14.778 19.779 13.743 20.005 13.399C20.105 13.246 20.241 13.103 20.32 12.939C20.508 12.538 20.77 12.126 21.19 12.104C21.62 12.084 22.087 12.252 22.502 12.437C22.932 12.627 23.382 14.366 23.142 14.762C23.079 14.862 22.911 14.899 22.795 14.968C22.334 15.222 21.862 15.448 21.279 15.306H21.28Z" fill="#284855"/>
</g>
<defs>
<clipPath id="clip0">
<rect width="119" height="100" fill="white"/>
</clipPath>
</defs>
</svg>
