<svg width="101" height="111" viewBox="0 0 101 111" fill="none" xmlns="http://www.w3.org/2000/svg">
<g clip-path="url(#clip0)">
<path d="M46.518 91.66C47.179 91.885 47.234 92.422 47.198 93.007C47.118 93.044 47.004 93.062 46.961 93.123C46.906 93.208 46.985 93.282 47.071 93.221C47.131 93.178 47.143 93.068 47.179 92.983C47.604 93.123 47.786 93.672 47.719 93.849C47.459 94.539 47.901 94.392 48.101 94.172C48.932 93.282 49.969 93.806 50.903 93.684C51.206 94.55 51.837 93.904 52.31 93.977C52.79 94.05 53.293 93.892 53.76 94.123C53.857 94.173 53.954 94.288 54.039 94.276C54.833 94.19 55.476 93.496 56.441 93.934C57.241 94.3 58.163 93.892 58.945 93.55C59.382 93.36 59.795 93.416 60.201 93.318C60.874 93.153 61.401 93.989 62.208 93.465C62.608 93.202 63.343 92.971 63.979 93.282C64.143 93.361 64.295 93.227 64.349 93.056C64.495 92.58 64.756 92.636 65.077 92.866C65.368 93.074 65.762 93.093 66.023 92.965C66.66 92.635 67.254 92.245 68.019 92.458C68.492 91.738 69.565 92.293 70.008 91.513C70.056 91.433 70.184 91.391 70.281 91.354C70.827 91.171 71.481 91.665 71.961 91.055C72.385 90.519 73.113 90.616 73.611 90.305C74.156 89.964 74.751 90 75.309 89.878C76.273 89.658 77.334 89.281 78.226 90.153C78.475 90.397 78.578 90.079 78.754 90.055C79.464 89.957 79.803 90.201 79.888 90.855C79.894 90.909 79.888 90.964 79.888 91.019C79.858 91.568 79.821 92.123 79.791 92.672C80.616 92.482 81.489 92.397 82.253 92.068C82.647 91.898 82.963 91.617 83.43 91.665C83.636 91.684 83.903 91.677 84.06 91.568C85.237 90.702 86.583 91.08 87.863 91.007C88.451 90.977 88.803 91.251 88.815 91.873C88.822 92.306 89.525 92.708 88.858 93.16C89.009 93.312 89.216 93.617 89.307 93.587C89.592 93.489 89.84 93.123 90.113 93.568C90.368 93.989 90.574 94.453 90.453 94.965C90.404 95.166 90.241 95.337 90.15 95.532C89.804 96.289 89.804 96.289 90.635 96.319C90.853 96.325 91.005 96.38 91.145 96.612C91.478 97.167 91.593 97.789 91.399 98.338C91.32 98.57 90.726 98.588 90.519 99.033C90.349 99.399 89.956 99.698 90.732 99.631C91.338 99.576 91.49 99.838 91.472 100.393C91.46 100.942 91.46 101.461 91.138 101.955C90.859 102.382 90.823 103.028 90.089 102.973C90.047 102.967 89.962 103.016 89.962 103.047C89.762 104.242 88.67 104.053 87.912 104.388C87.329 104.644 86.644 104.724 86.268 105.34L84.716 105.694C84.382 105.535 84.224 105.803 84.018 105.968C82.763 106.981 82.15 107.151 80.543 106.962C80.173 106.92 79.809 106.852 79.469 107.176C78.917 107.706 78.317 108.121 77.499 107.621C77.329 107.517 77.079 107.627 76.946 107.847C76.867 107.981 76.728 108.225 76.692 108.213C76.115 108.011 75.667 107.938 75.127 108.469C74.775 108.81 74.09 108.731 73.592 108.414C73.471 108.335 73.441 108.377 73.319 108.426C72.434 108.798 72.422 108.798 71.433 108.615C70.596 108.463 69.826 108.841 69.104 109.115C68.625 109.298 68.346 109.609 67.952 109.073C67.788 108.847 67.692 109.14 67.558 109.164C66.563 109.341 65.635 110.018 64.555 109.597C64.015 109.39 63.84 110.524 63.203 109.969C62.657 110.402 62.148 110.183 61.541 110.055C61.165 109.975 60.407 109.695 60.067 110.408C60.007 110.536 59.873 110.561 59.819 110.469C59.394 109.737 58.854 110.128 58.284 110.244C57.702 110.359 57.047 110.158 56.483 110.305C55.937 110.445 55.592 110.494 55.058 110.146C54.53 109.798 53.821 110.177 53.348 110.579C52.917 110.939 52.614 111.024 52.262 110.561C52.032 110.25 51.607 110.122 51.395 110.298C50.849 110.738 50.091 110.347 49.696 110.695C49.181 111.152 48.738 110.561 48.216 110.86C47.749 111.122 47.034 110.927 46.427 110.945C45.172 110.988 45.202 110.908 44.262 110.542C43.783 110.353 43.176 110.616 42.642 110.738C42.449 110.78 42.206 111.049 42.06 110.878C41.375 110.085 40.623 110.622 39.926 110.774C39.646 110.835 39.459 110.921 39.204 110.732C38.555 110.244 37.773 110.219 37.014 110.274C35.498 110.384 33.952 109.939 32.472 110.561C31.962 110.055 31.216 110.524 30.774 110.225C30.216 109.853 29.658 110.536 29.16 110.036C29.015 109.89 28.639 109.933 28.372 109.939C26.686 109.994 25.102 109.323 23.429 109.274C23.174 109.268 23.035 109.103 22.877 108.957C22.719 108.816 22.604 108.56 22.349 108.633C21.737 108.798 21.106 109.048 20.566 108.548C20.045 108.06 19.396 108.444 18.85 108.182C18.274 107.908 17.655 107.719 17.085 107.426C16.775 107.267 16.605 107.401 16.351 107.511C15.836 107.731 15.217 107.773 14.799 107.42C13.968 106.718 13.064 106.84 12.191 107.109C11.802 107.231 11.591 107.231 11.354 106.956C10.911 106.456 10.08 106.694 9.686 106.035C9.564 105.834 9.182 105.901 8.928 106.053C8.303 106.432 7.593 105.883 6.956 106.243C6.866 106.291 6.568 106.175 6.538 106.084C6.289 105.206 5.464 105.328 4.864 105.126C3.651 104.712 2.704 103.943 1.832 103.047C1.759 102.967 1.632 102.815 1.644 102.803C2.468 101.863 1.304 101.522 1.037 100.967C0.613004 100.088 0.382004 99.204 0.152004 98.265C-0.077996 97.313 0.734004 96.374 3.97558e-06 95.526C-0.011996 95.514 0.024004 95.435 0.060004 95.404C1.334 94.251 1.225 92.275 2.565 91.165C2.79 90.982 2.85 90.745 2.917 90.464C3.014 90.061 3.178 89.61 3.457 89.317C4.148 88.61 4.731 87.902 4.991 86.877C5.173 86.17 6.138 86.146 6.726 85.774C6.914 85.658 7.266 85.212 7.69 85.676C8.06 86.078 8.26 86.463 8.163 86.993C8.14774 87.0976 8.1014 87.1951 8.03 87.273C6.66 88.5 5.731 90.043 4.749 91.573C4.373 92.159 3.542 92.495 3.457 93.282C3.372 94.056 2.499 94.362 2.493 95.166C2.493 95.386 2.147 95.624 2.256 95.91C2.529 96.642 1.941 97.41 2.262 98.051C2.632 98.783 2.487 99.655 3.045 100.326C3.311 100.643 3.427 101.095 3.772 101.388C4.021 101.601 4.433 101.869 4.427 102.101C4.385 103.083 5.247 102.943 5.725 103.242C6.271 103.589 7.181 102.784 7.557 103.791C8.187 103.974 8.807 104.23 9.492 103.998C9.57 103.974 9.698 104.047 9.782 104.102C10.11 104.315 10.286 104.895 10.862 104.468C11.281 104.157 11.457 105.291 12.039 104.718C12.124 104.638 12.53 105.389 13.039 105.053C13.349 105.431 13.913 105.462 14.229 105.462C15.071 105.456 15.89 105.474 16.733 105.572C17.213 105.626 17.74 105.212 18.237 105.572C18.692 105.901 19.353 105.565 19.741 106.084C19.784 106.139 19.911 106.163 19.991 106.151C21.003 105.931 21.501 105.828 21.895 106.035C22.313 106.249 22.653 106.45 23.089 106.108C23.387 105.877 23.708 106.267 23.75 106.334C24.163 107.011 24.794 107.102 25.424 106.938C26.334 106.694 27.195 106.944 28.02 107.163C29.118 107.456 30.252 107.523 31.356 107.761C31.653 107.828 31.908 107.285 32.429 107.56C32.842 107.786 33.321 107.944 33.739 108.188C34.231 108.469 34.619 108.176 34.934 107.944C35.377 107.621 35.789 107.761 36.05 108.011C36.353 108.304 36.475 108.725 36.772 108.036C36.814 107.938 37.057 107.969 37.209 108.078C37.706 108.438 38.355 108.45 38.755 108.164C39.277 107.792 39.592 108.328 39.938 108.225C40.338 108.103 40.587 108.316 40.884 108.347C41.557 108.426 42.103 108.975 42.709 108.908C43.309 108.841 43.953 108.944 44.505 108.749C44.984 108.579 45.433 108.914 45.681 108.822C46.076 108.676 46.567 108.749 46.888 108.414C46.985 108.316 47.052 108.335 47.161 108.432C47.859 109.06 48.659 108.536 49.405 108.603C49.921 108.652 50.509 109.024 50.964 108.359C51.091 108.176 51.467 108.225 51.716 108.396C52.201 108.725 52.577 108.774 52.856 108.109C52.971 107.834 53.402 107.865 53.584 108.023C53.911 108.316 54.384 108.133 54.627 108.383C54.937 108.694 55.167 108.28 55.477 108.444C56.083 108.768 56.253 107.365 56.889 107.938C57.459 108.444 58.084 107.877 58.624 108.237C58.788 108.347 59.067 108.231 59.036 107.914C58.994 107.487 59.17 107.035 58.885 106.627C58.369 105.901 58.497 105.145 58.666 104.315C58.7707 103.777 58.662 103.219 58.363 102.76C58.011 102.229 57.787 101.711 58.497 101.284C58.727 101.144 58.521 101.04 58.509 100.912C58.369 99.606 57.975 98.332 58.187 96.99C58.224 96.77 58.078 96.514 58.267 96.264C58.527 95.923 58.478 95.459 58.302 95.179C57.975 94.66 57.672 95.313 57.32 95.337C56.156 95.422 54.985 95.563 53.869 95.965C53.675 96.032 53.366 96.057 53.226 95.947C52.644 95.514 52.062 96.16 51.425 95.856C50.775 95.544 50.018 95.227 49.265 95.898C49.017 96.124 48.477 96.032 48.053 95.728C47.453 95.288 47.398 95.338 47.167 96.1C46.961 96.77 46.785 97.356 46.015 97.728C45.408 98.021 45.008 98.582 44.395 97.783C44.335 97.703 43.838 98.015 43.716 97.923C43.067 97.411 41.951 97.496 41.751 96.41C40.235 95.575 39.471 93.733 37.639 93.337C37.336 93.269 37.16 93.087 36.99 92.873C36.93 92.793 36.948 92.647 36.881 92.574C36.584 92.239 34.831 91.568 34.734 91.744C34.406 92.379 34.685 92.958 34.855 93.599C35.043 94.319 35.638 95.111 34.946 95.899C35.516 97.142 34.77 97.521 33.758 97.722C33.388 98.71 32.781 98.124 32.193 98.002C30.998 97.765 30.203 96.746 29.027 96.484C28.875 96.447 28.754 96.167 28.669 95.971C28.602 95.831 28.663 95.538 28.584 95.508C27.523 95.057 27.353 93.989 26.807 93.16C26.2674 92.3375 25.7518 91.4995 25.261 90.647C24.721 89.72 23.514 89.36 22.453 89.018C22.355 88.988 22.186 88.976 22.131 89.031C21.281 89.97 20.336 89.219 19.438 89.195C19.348 89.195 19.183 89.098 19.178 89.104C18.747 90.019 17.946 89.274 17.352 89.512C16.752 89.75 16.157 89.232 15.502 89.317C14.798 89.409 14.071 89.305 13.362 89.36C12.979 89.384 12.73 89.17 12.469 89.006C11.59 88.451 10.771 87.798 9.879 87.268C9.401 86.981 9.91 86.499 9.54 86.218C9.23 85.993 8.988 85.682 8.71 85.408C8.333 85.042 8.594 84.554 8.467 84.158C8.237 83.395 7.915 82.663 7.715 81.876C7.478 80.967 7.502 79.967 6.89 79.131C6.677 78.839 6.671 78.156 6.872 77.851C7.314 77.167 6.872 76.612 6.811 76.009C6.756 75.399 6.514 74.838 6.805 74.185C6.993 73.77 6.684 73.258 6.653 72.806C6.629 72.41 7.211 72.056 6.908 71.538C7.502 71.19 6.793 70.708 7.053 70.245C7.272 69.861 7.169 69.281 7.157 68.787C7.151 68.427 7.302 68.183 7.497 67.897C7.963 67.213 8.37 66.518 8.224 65.591C8.127 65 9.049 64.151 9.692 64.121C10.062 64.103 10.462 63.993 10.802 64.274C11.699 64.999 12.972 64.871 13.846 65.64C14.592 65.548 15.259 65.646 15.806 66.268C16.017 66.512 16.145 66.134 16.303 66.042C16.915 65.682 16.66 64.829 17.249 64.389C17.728 64.036 18.383 64.121 18.795 63.572C19.232 62.999 19.699 62.45 20.385 62.029C20.967 61.669 21.343 60.669 21.215 59.955C21.13 59.468 21.258 59.181 21.33 58.785C21.403 58.364 21.761 57.937 21.385 57.443C21.227 57.241 21.379 56.912 21.603 56.705C21.846 56.479 21.907 56.308 21.779 55.905C21.634 55.43 22.361 54.856 22.919 54.777C23.2156 54.7386 23.517 54.7633 23.8034 54.8495C24.0898 54.9357 24.3548 55.0814 24.581 55.277C25.4393 56.0085 26.4356 56.5604 27.511 56.9C28.36 57.168 29.215 57.674 29.846 58.296C30.706 59.144 31.805 59.516 32.793 60.096C33.078 60.26 33.521 60.395 33.515 60.651C33.509 61.206 33.891 61.328 34.17 61.639C34.406 61.901 34.485 62.316 34.892 62.45C34.989 62.48 35.14 62.541 35.152 62.609C35.256 63.09 35.274 63.669 35.886 63.743C36.269 63.786 36.177 64.719 36.778 64.176C37.142 64.499 37.488 64.786 38.033 64.847C38.433 64.89 38.888 65.469 39.173 65.372C39.986 65.097 40.793 65.701 41.612 65.232C41.994 65.012 42.576 65.012 43.043 64.926C43.637 64.816 44.263 64.914 44.796 64.713C45.251 64.536 45.566 63.933 46.021 63.816C47.349 63.481 48.508 62.566 50.006 62.749C50.873 62.852 51.564 62.084 52.413 61.913C52.504 61.895 52.632 61.773 52.638 61.688C52.765 60.34 53.978 60.626 54.706 60.504C55.434 60.382 55.937 60.151 56.362 59.62C56.822 59.047 57.399 58.608 58.09 58.48C58.52 58.394 58.788 58.187 59.042 57.912C59.473 57.461 59.898 57.222 60.462 57.699C60.662 57.869 60.874 57.778 61.032 57.601C61.39 57.211 61.772 56.918 62.305 57.271C62.657 57.51 62.845 57.034 63.173 57.107C63.725 57.223 63.791 56.052 64.446 56.522C64.901 56.851 65.416 56.656 65.847 56.882C66.084 57.003 66.266 57.186 66.581 57.003C67.601 56.4 68.85 56.351 69.838 55.753C70.881 55.125 72.015 54.96 73.144 54.68C73.877 54.497 74.629 54.6 75.375 54.509C75.964 54.436 76.515 54.161 77.085 54.161C77.589 54.161 78.129 54.191 78.615 54.253C80.082 54.442 81.58 54.442 83.017 54.856C84.546 55.296 86.141 55.558 87.597 56.156C89.992 57.138 92.582 57.876 94.104 60.279C95.304 61.114 95.687 62.499 96.384 63.669C96.645 64.109 97.143 64.451 97.258 64.908C97.488 65.798 98.556 66.421 98.095 67.518C98.465 68.391 98.908 69.245 99.18 70.148C99.344 70.69 99.01 71.282 99.314 71.916C99.926 73.196 99.271 74.539 99.284 75.856C98.81 76.216 99.254 76.588 99.374 76.832C99.55 77.18 100.236 77.424 100.218 77.68C100.187 78.113 100.036 78.448 100.478 78.747C100.678 78.881 100.703 79.174 100.49 79.308C99.908 79.68 100.108 80.223 100.375 80.522C100.836 81.034 100.418 81.754 100.915 82.205C100.97 82.255 100.945 82.413 100.921 82.516C100.533 84.426 100.545 85.835 100.951 87.603C101 87.811 101.048 88.177 100.854 88.201C100.205 88.293 100.624 88.841 100.406 89.121C100.187 89.403 99.963 89.823 100.005 90.147C100.066 90.598 99.775 90.927 99.793 91.354C99.811 91.787 99.738 92.324 99.077 92.33C98.817 92.336 98.567 92.537 98.707 92.708C99.253 93.416 98.519 93.513 98.277 93.91C97.725 94.825 96.985 95.654 96.7 96.71C96.597 97.081 96.5 97.216 96.106 97.313C95.426 97.472 95.014 97.929 94.977 98.716C94.959 99.136 94.99 99.863 94.14 99.338C93.886 99.18 93.674 99.528 93.45 99.674C92.764 100.113 92.473 100.033 91.963 99.35C91.545 98.79 91.623 98.545 92.206 97.899C92.866 97.167 93.667 96.618 94.407 95.996C94.959 95.532 95.56 95.124 95.736 94.404C95.972 93.44 96.646 92.843 97.282 92.172C97.61 91.83 98.332 91.543 97.737 90.836C97.719 90.811 97.907 90.592 98.016 90.476C98.526 89.915 98.732 89.244 98.628 88.518C98.544 87.902 99.308 87.323 98.671 86.707C98.635 86.67 98.689 86.451 98.756 86.42C99.441 86.072 99.029 85.414 99.205 84.944C99.472 84.237 99.017 83.809 98.755 83.309C98.6788 83.1639 98.6321 83.0052 98.6177 82.8419C98.6033 82.6787 98.6214 82.5142 98.671 82.358C98.931 81.583 98.792 80.839 98.283 80.345C97.785 79.851 98.489 79.284 98.022 78.936C97.525 78.558 97.725 78.033 97.634 77.57C97.422 76.466 97.058 75.746 96.19 74.734C95.924 74.423 95.396 74.197 95.869 73.667C95.96 73.569 95.959 73.471 95.826 73.41C95.178 73.105 94.874 72.605 94.935 71.88C94.401 71.635 94.043 71.172 93.728 70.727C93.479 70.379 92.739 70.312 93.012 69.629C92.424 68.879 91.69 68.281 90.908 67.762C90.695 67.622 90.392 67.652 90.386 67.292C90.38 67.067 90.362 66.835 90.096 66.768C89.136 66.537 88.409 65.878 87.602 65.371C87.312 65.189 87.044 65.061 86.692 65.073C86.426 65.085 86.068 65.133 85.898 64.993C84.831 64.066 83.721 64.353 82.55 64.707C82.114 64.841 81.568 64.884 81.119 64.579C81.0076 64.4981 80.878 64.4458 80.7417 64.4266C80.6054 64.4075 80.4664 64.422 80.337 64.469C79.954 64.597 79.767 65.262 79.245 64.975C78.663 64.658 78.584 65.426 78.171 65.39C77.661 65.347 77.413 65.78 77.037 65.97C76.194 66.396 75.242 66.585 74.745 67.585C74.623 67.835 74.077 68.11 73.61 68.074C73.3385 68.0482 73.0665 68.1171 72.84 68.269C71.87 68.915 71.033 68.391 70.269 67.854C70.093 67.732 70.172 67.512 69.765 67.628C68.716 67.933 67.788 67.75 67.175 66.628C66.842 66.012 66.115 65.738 65.495 65.438C64.204 64.817 64.076 64.682 64.489 63.378C64.64 62.889 64.477 62.834 64.082 62.761C62.888 62.535 62.894 62.523 63.191 61.321C63.215 61.218 63.27 61.108 63.258 61.011C63.148 60.193 63.44 59.644 64.264 59.443C64.549 59.376 64.604 59.181 64.525 58.955C64.458 58.778 64.215 58.76 64.101 58.839C63.712 59.119 63.379 59.169 62.894 58.967C62.408 58.767 62.294 59.455 61.935 59.632C61.723 59.736 61.626 60.187 61.305 59.943C60.577 59.394 60.08 59.687 59.6 60.309C59.364 60.614 58.976 60.663 58.624 60.803C57.259 61.346 55.792 61.7 54.615 62.645C54.409 62.81 54.251 62.352 54.105 62.615C54.009 62.792 54.039 63.206 53.966 63.218C53.208 63.34 52.741 64.164 51.946 64.097C51.286 64.042 50.806 64.39 50.303 64.701C50.121 64.817 49.957 64.963 49.769 65.079C49.417 65.292 49.035 64.652 48.793 65.006C48.605 65.274 48.477 65.628 48.18 65.726C47.78 65.853 47.458 66.244 46.967 66.097C46.507 65.957 46.118 66.219 45.748 66.439C44.766 67.019 44.28 67.336 43.656 67.067C42.886 66.744 42.364 67.25 41.757 67.378C41.424 67.445 41.121 67.683 40.817 67.433C40.089 66.841 39.131 67.263 38.361 66.793C37.827 66.469 37.111 66.061 36.602 66.189C35.935 66.359 35.826 66.042 35.595 65.677C35.419 65.408 35.243 65.134 35.068 64.865C34.698 65.134 34.655 64.749 34.437 64.621C33.345 63.975 32.963 62.706 31.987 61.962C31.689 61.736 31.623 61.2 31.119 61.096C30.762 61.023 30.64 60.242 30.076 60.736C30.058 60.754 29.888 60.639 29.828 60.553C28.802 59.291 27.28 58.791 25.958 57.985C25.364 57.625 24.781 57.235 24.199 56.857C24.005 56.729 23.896 56.339 23.569 56.687C23.411 56.851 23.199 57.101 23.332 57.247C23.847 57.79 23.532 58.113 23.132 58.479C23.035 58.571 22.956 58.833 23.01 58.912C23.69 59.882 22.319 60.785 22.938 61.736C22.574 62.163 22.118 62.529 22.246 63.225C22.283 63.408 21.913 63.469 21.7 63.438C21.264 63.378 20.948 63.56 20.712 63.889C19.917 64.975 18.704 65.659 17.982 66.829C17.637 67.39 16.752 67.384 16.418 68.061C16.381 68.134 16.072 68.153 15.951 68.08C15.029 67.561 14.022 67.494 13.003 67.342C12.518 67.268 11.881 67.122 11.378 66.695C11.098 66.457 10.45 66.543 10.025 66.244C9.613 65.957 9.479 66.171 9.413 66.591C9.146 68.299 8.8 69.989 8.721 71.727C8.691 72.447 8.267 73.142 8.733 73.874C8.849 74.057 8.655 74.276 8.57 74.484C8.297 75.112 8.072 75.764 8.582 76.399C8.61963 76.4396 8.6522 76.4846 8.679 76.533C8.922 77.033 8.145 77.381 8.485 77.906C8.709 78.247 8.964 78.601 8.922 79.034C8.8 80.224 9.407 81.26 9.577 82.388C9.601 82.541 9.752 82.699 9.728 82.834C9.54 83.974 10.183 84.779 10.796 85.609C11.02 85.914 11.202 86.249 11.384 86.579C11.833 87.389 11.833 87.414 12.912 87.396C13.24 87.39 13.507 87.506 13.585 87.743C13.792 88.396 14.04 88.299 14.392 87.883C14.544 87.701 14.847 87.597 14.987 87.719C15.623 88.28 16.436 87.409 17.043 88.012C17.649 87.445 18.51 87.896 19.196 87.439C19.572 87.189 20.106 88.018 20.688 87.518C21.178 87.091 21.67 88.055 22.18 87.615C22.725 87.145 23.168 87.555 23.678 87.665C24.278 87.798 24.66 88.091 25.085 88.549C25.618 89.116 26.315 89.488 26.51 90.36C26.558 90.586 27.025 90.702 27.28 90.89C27.505 91.061 27.699 91.269 27.505 91.58C27.383 91.769 27.22 91.921 27.602 92.013C28.092 92.135 28.348 92.476 28.262 92.995C28.19 93.452 28.457 93.721 28.754 93.971C29.64 94.727 30.398 95.624 31.356 96.307C31.756 96.594 32.12 96.679 32.563 96.642C32.599 96.722 32.611 96.838 32.678 96.88C32.763 96.935 32.836 96.862 32.781 96.777C32.739 96.716 32.623 96.703 32.545 96.667C32.569 96.484 32.69 96.331 32.848 96.337C33.448 96.374 33.63 96.106 33.539 95.538C33.406 94.739 33.309 93.94 33.169 93.141C33.133 92.941 32.951 92.763 32.909 92.561C32.769 91.952 32.187 90.141 31.859 89.896C31.362 89.525 31.549 88.829 30.979 88.463C30.483 88.146 30.155 87.543 29.767 87.06C29.47 86.688 29.287 86.688 29.179 87.189C29.166 87.249 28.954 87.335 28.918 87.304C28.457 86.944 27.862 87.115 27.378 86.908C27.062 86.774 26.856 86.481 26.94 86.103C27.02 85.743 27.098 85.353 27.65 85.56C27.99 85.688 28.184 85.292 28.493 85.249C28.627 85.231 28.754 84.975 28.893 85.2C29.197 85.694 29.621 85.347 29.967 85.42C30.919 85.615 31.568 86.261 31.981 87.2C32.241 87.798 32.326 88.494 33.103 88.878C33.497 89.073 33.648 89.884 33.788 90.445C33.94 91.049 34.231 90.818 34.534 90.671C34.722 90.58 34.904 90.451 35.068 90.323C35.231 90.195 35.358 89.982 35.589 90.213C36.044 90.665 36.766 90.507 37.239 91.062C37.615 91.501 38.47 91.488 38.755 92.105C39.04 92.715 39.683 92.312 40.047 92.708C40.405 93.098 40.884 93.416 41.363 93.641C41.733 93.812 42.115 93.971 42.133 94.386C42.17 95.313 43.346 95.264 43.486 96.081C43.528 96.319 43.704 96.209 43.826 96.118C44.123 95.886 44.474 96.069 44.778 95.984C45.081 95.898 45.414 95.77 45.621 95.551C45.711 95.453 45.487 95.093 45.469 94.843C45.433 94.294 45.39 93.733 45.445 93.184C45.499 92.659 45.311 92.373 44.85 92.19C44.71 92.135 44.51 91.867 44.529 91.848C45.232 90.952 44.171 90.763 43.899 90.275C43.716 89.951 44.001 89.768 44.013 89.531C44.026 89.268 43.601 89.348 43.468 89.055C43.061 88.165 41.885 88.53 41.321 87.798C41.236 87.688 40.605 87.89 40.326 88.085C39.92 88.378 39.507 88.353 39.076 88.353C38.852 88.353 38.603 88.347 38.531 88.103C38.451 87.847 38.403 87.512 38.671 87.347C39.538 86.81 40.429 86.078 41.484 86.414C42.048 86.597 42.637 86.932 43.182 87.244C44.626 88.073 44.644 88.073 45.396 89.555C45.602 89.97 45.876 90.287 46.185 90.585C46.525 90.915 46.361 91.312 46.439 91.671C46.361 91.708 46.245 91.726 46.203 91.787C46.148 91.873 46.227 91.952 46.313 91.891C46.47 91.854 46.488 91.745 46.518 91.659V91.66ZM78.9 92.982C78.985 92.945 79.1 92.939 79.149 92.872C79.209 92.792 79.131 92.702 79.039 92.756C78.973 92.793 78.961 92.915 78.924 93C78.839 93.037 78.724 93.049 78.676 93.116C78.616 93.201 78.7 93.281 78.791 93.226C78.851 93.189 78.87 93.067 78.901 92.982H78.9ZM88.507 58.466C87.937 58.046 87.367 57.631 86.585 57.771C86.318 57.82 85.99 57.856 85.82 57.594C85.232 56.685 84.225 56.996 83.449 56.868C81.896 56.618 81.866 56.758 81.071 56.13C80.835 55.941 80.677 55.856 80.392 56.05C80.235 56.155 79.962 56.07 79.755 56.118C79.245 56.246 78.803 55.746 78.288 55.984C77.942 55.441 77.226 56.466 76.929 55.654C76.856 55.459 76.674 55.575 76.547 55.673C76.201 55.941 75.771 55.843 75.437 55.764C74.63 55.581 73.921 55.764 73.175 56.027C72.125 56.399 71.04 56.661 69.991 57.07C68.966 57.472 68.165 57.997 67.413 58.808C66.691 59.582 65.551 59.912 64.866 60.79C64.829 60.833 64.787 60.87 64.769 60.924C64.678 61.168 64.744 61.351 64.999 61.43C66.006 61.735 66.861 61.266 67.352 60.54C68.39 59.021 70.167 59.21 71.525 58.46C71.646 58.393 71.853 58.472 72.016 58.466C72.392 58.448 72.666 58.527 72.647 58.991C72.635 59.375 72.72 59.839 72.107 59.765C71.483 59.692 71.016 60.29 70.385 60.125C69.894 59.997 69.815 61.071 69.178 60.54C69.154 60.522 69.008 60.644 68.923 60.699C68.729 60.833 68.705 61.064 68.608 61.253C68.487 61.485 68.311 61.717 68.008 61.778C67.377 61.906 67.188 62.601 66.6 62.864C66.182 63.053 65.915 63.876 66.115 64.242C66.437 64.834 66.97 64.224 67.389 64.084C67.631 64.004 67.844 63.784 68.032 63.596C68.681 62.936 69.299 62.26 70.136 61.809C70.913 61.388 71.871 61.369 72.489 60.546C72.72 60.241 73.593 60.668 73.775 59.887C73.787 59.845 74 59.796 74.072 59.839C74.43 60.034 74.667 60.309 74.606 60.766C74.564 61.089 74.636 61.412 74.146 61.479C73.484 61.565 72.908 61.869 72.508 62.431C72.058 63.059 71.192 62.522 70.731 63.101C70.676 63.175 70.518 63.157 70.44 63.224C69.79 63.779 69.439 64.644 68.493 64.907C68.28 64.968 68.135 65.547 68.098 65.907C68.068 66.218 68.517 66.108 68.687 66.316C69.105 66.816 69.36 66.804 69.354 66.066C69.354 65.92 69.505 65.81 69.7 65.791C70.512 65.731 71.004 65.096 71.64 64.706C72.059 64.45 72.186 63.919 72.671 63.803C73.296 63.657 73.994 63.62 73.975 62.699C73.975 62.553 74.091 62.522 74.188 62.589C74.879 63.102 75.237 62.321 75.765 62.181C76.177 62.071 76.511 61.784 76.984 61.772C77.542 61.76 77.566 62.174 77.724 62.479C77.972 62.967 77.42 62.717 77.287 62.889C77.135 63.083 76.838 63.248 76.595 63.266C75.752 63.333 75.122 63.919 74.449 64.279C73.757 64.645 73.284 65.413 72.38 65.596C71.925 65.688 71.798 66.486 72.04 67.03C72.35 67.719 72.762 67.042 73.12 67.103C73.436 67.158 73.593 66.895 73.818 66.743C74.436 66.31 75.158 65.986 75.686 65.468C76.268 64.895 77.044 64.834 77.656 64.468C78.936 63.705 80.344 63.48 81.726 63.163C82.284 63.034 82.939 62.681 83.431 62.858C84.444 63.224 85.535 63.047 86.536 63.583C87.731 64.223 88.452 63.65 88.483 62.266C88.489 61.991 88.586 61.601 88.446 61.455C87.943 60.925 88.646 60.302 88.398 59.997C87.882 59.375 88.677 58.972 88.477 58.467C88.556 58.43 88.671 58.417 88.713 58.35C88.774 58.265 88.695 58.186 88.604 58.24C88.556 58.265 88.544 58.38 88.507 58.466ZM80.847 96.629C80.429 96.569 79.974 96.837 79.58 96.507C79.4931 96.4393 79.4189 96.3567 79.361 96.263C79.197 95.995 79.471 96.056 79.573 95.983C80.708 95.196 82.175 95.379 83.333 94.659C85.044 94.769 86.166 93.519 87.519 92.811C87.7 92.713 87.859 92.524 87.797 92.262C87.731 91.982 87.507 91.982 87.288 91.982C86.36 91.975 85.498 92.25 84.662 92.634C83.849 93.006 82.885 92.988 82.182 93.628C81.551 93.031 81.326 94.043 80.817 93.976C80.186 93.896 79.652 94.208 79.161 94.543C78.161 95.226 76.856 94.488 75.886 95.287C75.862 95.306 75.783 95.275 75.74 95.251C75.182 94.854 74.673 94.964 74.072 95.245C73.484 95.519 72.775 95.202 72.659 94.787C72.562 94.446 73.114 93.769 73.684 93.677C74.964 93.476 76.153 93.073 77.226 92.335C78.063 92.475 78.16 91.744 78.451 91.262C78.712 90.829 78.481 90.676 78.057 90.682C77.784 90.688 77.451 90.579 77.244 90.694C76.407 91.17 75.274 90.914 74.618 91.804C74.478 92 74.206 92.085 74.03 91.981C73.296 91.561 72.926 91.927 72.502 92.506C72.314 92.768 71.907 92.933 71.392 92.726C70.797 92.494 70.985 93.567 70.422 93.616C70.276 93.628 70.106 93.561 69.979 93.482C69.706 93.312 69.463 93.25 69.348 93.628C69.269 93.884 69.099 94.006 68.868 93.97C68.614 93.933 68.311 93.683 68.141 93.769C67.904 93.884 67.947 94.415 67.468 94.318C67.061 94.232 66.801 94.885 66.425 94.623C65.879 94.238 65.43 94.733 64.932 94.665C64.392 94.592 63.889 94.805 63.368 94.921C62.616 95.092 61.876 95.153 61.112 95.458C60.202 95.824 60.081 95.635 60.092 96.355C60.105 96.891 59.978 97.428 60.196 97.983C60.366 98.416 59.996 98.88 60.275 99.447C60.529 99.977 60.245 100.746 60.39 101.405C59.729 101.911 59.82 102.448 60.299 103.027C60.493 103.259 60.463 103.558 60.341 103.808C59.668 105.174 60.262 106.424 60.632 107.705C60.784 108.242 61.106 108.321 61.591 108.291C62.137 108.26 62.306 107.571 62.852 107.614C63.38 107.657 63.822 108.108 64.405 107.943C64.611 107.888 64.872 107.998 65.06 107.919C66.31 107.382 67.735 107.724 68.966 107.132C69.051 107.089 69.184 107.022 69.233 107.053C70.112 107.663 70.755 107.004 71.477 106.675C71.822 106.516 72.204 106.223 72.629 106.601C72.92 106.864 73.284 106.876 73.612 106.614C74.024 106.29 74.503 106.254 75 106.29C75.831 106.351 76.571 106.15 77.335 105.766C77.778 105.54 78.305 105.333 78.967 105.406C79.537 105.473 80.307 105.296 80.907 105.058C81.617 104.772 82.23 104.29 83.061 104.607C83.176 104.65 83.394 104.57 83.503 104.473C83.753 104.259 83.989 104.021 84.195 103.765C84.547 103.332 84.844 104.064 85.184 103.796C85.426 103.601 85.644 103.155 85.978 103.363C86.488 103.674 86.906 103.357 87.064 103.1C87.354 102.625 87.779 102.417 88.216 102.332C88.786 102.222 88.98 101.874 89.247 101.435C89.86 100.435 89.095 101.021 88.78 100.899C88.24 100.691 87.834 100.575 87.264 100.899C86.772 101.173 85.905 100.636 85.657 101.588C85.65 101.606 85.414 101.618 85.353 101.563C84.898 101.118 84.613 101.46 84.237 101.716C83.679 102.088 83.146 102.588 82.345 102.039C81.945 101.771 81.678 101.539 82.005 101.435C82.551 101.258 82.666 100.392 83.431 100.624C83.746 100.722 84.061 100.588 84.346 100.374C85.402 99.575 86.839 99.813 87.931 99.081C88.653 99.606 88.956 98.941 89.374 98.581C89.617 98.367 89.878 98.172 90.126 97.971C90.206 97.904 90.551 97.794 90.29 97.764C89.744 97.703 89.29 97.081 88.774 97.361C88.052 97.745 87.179 97.593 86.506 98.117C85.984 98.526 85.353 98.605 84.692 98.703C84.213 98.77 83.637 98.636 83.176 99.123C82.521 99.813 82.436 99.758 81.787 99.033C81.472 98.684 81.502 98.392 81.914 98.343C82.375 98.294 82.703 98.008 83.115 97.879C83.461 97.776 83.855 97.361 84.08 97.453C84.838 97.751 84.486 96.813 84.91 96.8C85.062 96.794 85.22 96.66 85.365 96.678C85.99 96.758 86.463 96.275 87.1 96.3C88.083 96.342 88.501 95.3 89.302 94.952C89.459 94.885 89.459 94.738 89.314 94.738C88.695 94.757 88.222 94.043 87.488 94.5C86.026 95.41 84.255 95.537 82.728 96.312C82.151 96.605 81.52 96.782 80.847 96.629ZM97.077 68.463C97.071 68.152 97.077 67.944 96.786 67.737C96.319 67.407 95.852 66.877 95.834 66.352C95.809 65.584 95.276 65.042 95.184 64.412C95.094 63.76 94.329 63.718 94.348 62.974C94.36 62.479 93.972 61.693 93.074 61.76C92.922 61.772 92.637 61.528 92.601 61.363C92.352 60.107 91.091 59.943 90.363 59.21C90.193 59.04 89.902 59.113 89.866 59.363C89.817 59.753 89.399 59.985 89.653 60.553C90.029 61.393 90.108 62.418 89.781 63.309C89.551 63.931 89.878 64.425 89.829 64.986C89.811 65.212 89.951 65.316 90.193 65.426C91.067 65.822 92.153 65.932 92.583 67.011C93.22 67.011 93.517 67.341 93.547 67.975C93.553 68.097 93.747 68.274 93.887 68.31C94.657 68.53 94.9 69.347 95.549 69.738C96.052 70.036 96.434 70.64 96.386 71.244C96.331 71.878 96.846 72.013 97.053 72.397C97.173 72.617 97.271 72.787 97.507 72.727C97.768 72.659 97.732 72.403 97.738 72.19C97.768 71.323 97.714 70.378 97.308 69.689C97.028 69.201 96.604 68.969 97.077 68.463ZM78.184 93.477C78.154 93.44 78.123 93.404 78.087 93.373C78.05 93.403 78.014 93.434 77.983 93.471C78.032 93.507 78.08 93.544 78.129 93.574C78.147 93.544 78.165 93.507 78.183 93.477H78.184Z" fill="#284854"/>
<path d="M35.02 59.779C34.503 59.718 34.115 59.139 34.334 58.693C34.546 58.26 34.922 57.937 35.171 57.498C35.474 56.967 36.335 57.04 36.523 56.156C36.657 55.54 37.481 55.186 38.076 54.796C38.428 54.564 38.67 54.204 39.119 54.039C39.325 53.966 39.871 53.936 39.768 53.545C39.622 52.985 39.974 52.911 40.314 52.789C40.751 52.63 40.502 52.209 40.654 51.947C40.847 51.617 41.126 51.307 41.199 50.953C41.406 49.977 41.629 48.971 41.181 47.995C40.969 47.538 40.805 47.117 40.732 46.586C40.647 45.952 40.168 45.391 39.641 44.884C38.931 44.201 38.603 43.128 37.524 42.811C37.099 41.64 35.789 41.133 35.438 39.846C35.098 38.614 34.098 37.632 33.873 36.315C33.012 35.949 33.691 34.656 32.703 34.369C32.757 33.656 32.393 32.979 32.575 32.222C32.66 31.869 32.454 31.356 32.223 31.027C31.526 30.033 31.859 28.947 31.823 27.892C32.338 27.666 31.265 26.922 32.169 26.818C31.944 26.404 32.344 26.074 32.326 25.678C32.302 25.184 32.35 24.678 32.308 24.184C32.272 23.702 32.557 23.165 32.781 23.031C34.049 22.268 34.491 20.671 35.917 20.067C36.293 19.908 36.56 19.487 37.057 19.591C37.287 19.634 37.506 19.585 37.645 19.39C38.482 18.267 39.877 18.432 40.963 17.901C42.394 17.206 44.171 17.206 45.245 15.791C46.069 15.724 46.7 15.218 47.398 14.851C48.368 14.339 48.478 14.101 49.218 12.839C49.654 12.095 50.242 11.467 50.206 10.509C50.2 10.308 50.527 10.082 50.716 9.88102C50.7892 9.79737 50.883 9.73429 50.988 9.69802C51.091 9.67302 51.649 10.863 51.601 10.991C51.206 12.077 51.225 12.064 51.825 12.791C52.135 13.162 52.814 13.467 52.195 14.12C52.723 15.01 53.287 15.876 54.312 16.273C54.457 16.328 54.7 16.31 54.755 16.407C55.567 17.816 57.375 17.895 58.339 19.164C58.612 19.524 59.164 19.573 58.799 20.194C58.709 20.347 58.867 20.481 59.03 20.554C59.904 20.944 60.067 21.707 60.086 22.561C60.098 23.122 60.006 23.611 60.626 24.111C61.111 24.507 61.359 25.477 61.335 26.178C61.292 27.245 62.251 28.252 61.493 29.331C61.947 30.027 61.663 30.813 61.76 31.551C61.826 32.07 61.202 32.436 61.432 32.948C61.887 33.936 61.499 34.784 61.147 35.681C61.014 36.016 60.941 36.541 61.105 36.803C61.499 37.413 61.299 38.041 61.02 38.431C60.407 39.298 61.104 40.194 60.77 41.048C60.625 41.426 60.838 41.908 60.504 42.298C60.383 42.438 60.316 42.774 60.407 42.914C60.995 43.847 60.498 44.976 60.977 45.915C61.165 46.287 61.044 46.671 61.068 47.05C61.117 47.794 61.348 48.16 61.96 48.593C62.281 48.818 62.572 49.105 62.202 49.538C62.026 49.746 62.069 49.935 62.269 50.099C63.355 50.978 63.816 51.52 64.379 52.746C64.489 52.978 64.568 53.118 64.81 53.124C65.113 53.137 65.398 53.222 65.356 53.57C65.296 54.13 65.574 54.49 65.914 54.869C66.151 55.131 65.963 55.363 65.769 55.576C65.556 55.802 65.423 55.631 65.223 55.546C64.974 55.436 64.707 55.376 64.537 55.137C64.004 54.393 63.349 53.801 62.53 53.387C62.239 53.24 62.117 52.947 62.038 52.587C61.918 52.051 61.481 51.917 60.892 52.087C60.195 52.289 59.279 52.905 58.733 53.564C58.527 53.814 58.363 54.094 57.981 54.119C57.684 54.137 57.429 53.826 57.253 53.887C57.065 53.954 56.998 54.332 56.841 54.546C56.544 54.948 56.107 54.271 56.028 54.496C55.731 55.326 54.936 54.996 54.427 55.308C53.227 56.034 51.849 55.991 50.533 56.064C50.169 56.083 49.769 56.022 49.375 56.094C48.847 56.199 48.271 55.942 47.78 56.327C47.185 56.79 47.04 55.698 46.573 55.955C46.233 56.138 46.1 55.826 45.851 55.795C45.341 55.735 44.875 56.436 44.487 56.058C44.123 55.698 43.85 55.43 43.31 55.43C42.752 55.43 42.546 54.857 42.176 54.546C41.478 53.954 41.145 53.948 40.556 54.661C40.356 54.905 40.211 55.204 40.071 55.491C39.865 55.911 39.428 55.381 39.295 55.643C38.665 56.863 37.469 57.413 36.469 58.199C36.299 58.333 36.639 58.742 36.281 58.968C36.031 59.12 35.626 59.083 35.583 59.553C35.547 59.791 35.237 59.785 35.019 59.779H35.02ZM46.524 16.949C46.488 16.864 46.47 16.749 46.403 16.712C46.318 16.657 46.239 16.742 46.293 16.828C46.336 16.888 46.452 16.901 46.53 16.938C46.1 17.285 46.04 18.34 45.08 17.688C45.02 17.651 44.826 17.871 44.693 17.883C44.25 17.926 43.995 18.261 43.813 18.566C43.455 19.158 42.922 18.377 42.715 18.713C42.467 19.115 41.945 19.56 41.8 19.475C41.181 19.127 41.072 19.573 40.678 19.829C40.235 20.122 39.58 20.189 39.088 20.536C38.628 20.859 37.985 20.798 37.585 21.274C37.185 21.744 36.56 21.75 36.025 21.933C35.862 21.988 35.644 22.067 35.668 22.183C35.832 22.921 35.11 22.89 34.813 23.22C34.133 23.964 33.393 24.665 33.63 25.837C33.733 26.343 33.667 26.831 33.212 27.178C32.975 27.368 33.175 27.526 33.218 27.721C33.278 28.014 33.685 28.233 33.454 28.575C33.151 29.026 33.503 29.38 33.551 29.777C33.618 30.332 34.243 30.862 33.921 31.307C33.394 32.033 33.843 32.521 34.049 33.113C34.389 34.107 35.171 34.961 34.971 36.126C34.941 36.303 35.056 36.498 35.207 36.504C35.892 36.547 35.377 37.401 35.989 37.59C36.432 37.724 36.487 38.364 36.705 38.779C36.929 39.206 37.148 39.639 37.372 40.072C38.064 39.81 38.027 40.487 38.233 40.792C38.494 41.17 38.452 41.194 39.028 41.64C39.404 41.932 39.483 42.426 39.744 42.798C39.859 42.963 40.084 43.055 40.241 43.195C41.236 44.067 42.401 44.83 42.224 46.428C42.212 46.525 42.243 46.665 42.309 46.726C43.522 47.769 42.461 49.148 42.843 50.313C42.315 50.807 42.703 51.587 42.267 52.149C42.103 52.362 42.17 52.813 42.685 52.807C43.067 52.807 43.601 52.777 43.685 53.185C43.85 53.948 44.505 53.856 44.935 53.997C46.003 54.35 47.252 54.881 48.229 54.387C49.223 53.887 50.054 54.131 50.969 54.167C51.297 54.18 51.601 54.192 51.91 54.369C52.244 54.564 52.498 54.479 52.85 54.119C53.287 53.667 54.015 53.252 54.609 53.265C55.513 53.289 56.198 52.965 56.877 52.508C57.15 52.319 57.357 52.027 57.72 52.295C57.86 52.399 57.981 52.447 58.066 52.234C58.4 51.38 59.139 51.075 59.916 50.776C60.092 50.709 60.206 50.471 60.353 50.319C59.794 49.947 60.334 49.227 59.873 48.812C59.533 48.507 59.213 48.184 59.661 47.714C59.388 47.379 59.103 47.056 58.842 46.714C58.7895 46.6499 58.7619 46.5691 58.7641 46.4863C58.7663 46.4035 58.7982 46.3242 58.854 46.263C59.412 45.604 59.267 44.891 58.927 44.232C58.587 43.585 58.885 42.926 58.745 42.286C58.685 41.987 59.048 41.902 58.975 41.566C58.855 41.042 59.127 39.578 59.303 39.139C59.509 38.62 59.916 38.145 59.431 37.529C59.279 37.339 59.431 37.01 59.643 36.791C59.831 36.601 60.073 36.425 60.043 36.108C59.91 34.674 60.28 33.29 60.383 31.875C60.443 31.057 59.819 30.24 60.377 29.411C60.431 29.325 60.304 29.111 60.243 28.965C60.11 28.648 59.831 27.087 59.946 26.562C59.995 26.33 59.898 26.263 59.806 26.178C59.297 25.696 59.097 24.983 59.146 24.415C59.212 23.605 58.442 23.275 58.418 22.604C58.358 21.14 57.284 20.329 56.398 19.396C55.173 19.438 54.676 18.279 53.808 17.743C53.093 17.298 52.335 16.803 51.746 16.218C51.17 15.645 51.358 14.596 50.909 13.851C50.758 13.601 50.642 13.766 50.376 13.803C49.429 13.919 49.872 14.919 49.314 15.291C48.417 15.882 47.628 16.681 46.524 16.95V16.949Z" fill="#284854"/>
<path d="M56.453 4.97C55.416 5.056 54.513 4.892 54.039 3.794C53.96 3.611 53.742 3.367 53.572 3.354C52.692 3.275 51.959 2.775 51.201 2.44C50.631 2.184 50.236 2.732 49.721 2.421C49.333 2.19 48.896 1.946 48.362 1.976C47.4001 2.02338 46.4501 2.21033 45.542 2.531C44.608 2.873 43.504 2.763 42.734 3.574C42.552 3.769 42.2 3.733 41.976 3.538C41.746 3.342 41.539 3.422 41.472 3.629C41.266 4.233 40.745 4.409 40.247 4.477C39.265 4.617 38.749 5.471 37.967 5.898C37.833 5.971 37.833 6.331 37.548 6.282C36.881 6.166 36.723 6.795 36.323 7.057C35.729 7.441 35.153 7.868 34.667 8.344C34.146 8.85 33.23 9.07 33.248 10.1C33.254 10.375 32.793 10.698 32.496 10.936C32.047 11.302 31.404 11.516 31.635 12.302C31.016 12.754 30.835 13.54 30.349 14.065C29.913 14.535 29.743 15.005 29.628 15.638C29.47 16.528 29.464 17.462 29.051 18.322C28.845 18.755 28.827 19.262 29.051 19.786C29.324 20.42 28.985 21.103 28.942 21.768C28.882 22.738 28.936 23.726 28.7 24.684C28.675 24.787 28.663 24.983 28.712 25.001C29.615 25.44 28.839 26.245 29.106 26.861C29.33 27.379 29.276 28.032 29.518 28.581C29.67 28.929 29.27 29.111 29.312 29.459C29.385 30.063 29.372 30.673 29.355 31.283C29.343 31.679 29.403 32.131 29.5 32.43C29.791 33.363 29.664 34.272 29.658 35.193C29.658 35.699 30.022 36.193 29.918 36.589C29.828 36.955 29.755 37.394 29.761 37.706C29.785 39.516 28.778 41.164 28.991 43C29.027 43.329 28.827 43.762 28.602 44.036C27.608 45.256 27.262 46.708 27.05 48.202C26.983 48.69 26.528 49.056 26.68 49.592C25.83 50.3 26.061 51.27 26.043 52.185C26.037 52.569 26.043 52.96 25.964 53.332C25.861 53.832 24.884 54.454 24.43 54.362C24.023 54.283 23.356 53.356 23.526 52.899C23.884 51.947 23.569 50.849 24.29 49.959C24.636 49.532 24.478 48.824 24.545 48.263C24.697 46.958 24.551 46.921 25.352 45.97C25.934 45.275 26.049 44.408 26.31 43.61C26.57 42.829 26.365 41.883 27.262 41.365C27.372 41.304 27.396 41.072 27.25 40.932C26.953 40.639 26.977 40.359 27.274 40.09C27.529 39.865 27.754 39.627 27.669 39.249C27.25 37.315 27.857 35.394 27.729 33.449C27.656 32.362 27.481 31.301 27.365 30.228L27.347 30.246C27.468 30.209 27.627 30.197 27.584 30.02C27.565 29.96 27.432 29.935 27.354 29.892L27.365 29.905C27.286 29.099 27.432 28.288 27.086 27.489C26.904 27.069 26.989 26.501 27.044 26.013C27.214 24.598 27.226 23.561 26.862 22.603C26.71 22.201 26.686 21.908 26.886 21.53C27.098 21.14 27.28 20.786 27.08 20.231C26.82 19.524 27.59 18.706 27.032 17.944C27.268 17.218 27.105 16.431 27.377 15.718C27.663 14.974 27.996 14.248 28.269 13.498C28.3753 13.1899 28.5568 12.9133 28.797 12.693C29.239 12.272 29.579 11.772 29.652 11.162C29.706 10.716 29.937 10.497 30.301 10.302C30.98 9.936 31.368 9.381 31.738 8.649C32.242 7.667 32.8 6.489 34.164 6.301C34.31 6.282 34.577 6.172 34.577 6.124C34.486 5.124 35.237 5.044 35.905 4.812C36.141 4.733 36.329 4.465 36.499 4.252C37.457 3.056 38.124 2.763 39.653 2.177C40.569 1.824 41.624 1.598 42.358 0.957C43.826 -0.323 45.524 0.085 47.168 0C48.132 0.708 49.175 0.244 50.17 0.134C50.558 0.091 50.873 -0.006 51.225 0.238C51.9244 0.713929 52.7085 1.05135 53.535 1.232C54.482 1.446 55.185 2.092 55.877 2.714C56.556 3.324 56.489 4.184 56.423 5.007L56.453 4.971V4.97Z" fill="#284854"/>
<path d="M56.428 5.00103C56.804 4.97703 56.725 4.59903 56.883 4.40403C57.143 4.06803 57.459 3.91003 57.883 3.98903C58.478 4.09303 59.06 4.67203 59.697 4.04403C59.74 4.00103 60.025 4.10403 60.116 4.20803C60.431 4.58003 60.801 4.71503 61.28 4.66603C61.4483 4.64797 61.6175 4.6918 61.7559 4.78933C61.8942 4.88686 61.9924 5.03142 62.032 5.19603C62.214 6.00203 62.882 6.19103 63.476 6.30003C64.186 6.43503 64.592 6.78203 64.943 7.37403C65.556 8.41103 66.672 9.08203 67.03 10.314C67.133 10.668 67.436 10.942 67.37 11.369C67.272 12.003 68.273 12.125 68.091 12.827C68.752 13.235 68.571 14.144 69.134 14.62C69.237 14.705 69.334 14.95 69.292 15.047C68.977 15.73 69.402 16.242 69.638 16.809C69.983 17.651 70.268 18.499 70.372 19.426C70.426 19.914 70.342 20.481 70.784 20.976C71.239 21.482 71.142 22.317 70.93 22.872C70.675 23.531 70.826 24.172 70.7 24.806C70.572 25.428 70.663 26.086 70.353 26.702C70.25 26.91 70.238 27.257 70.45 27.483C71.209 28.3 70.7 29.215 70.572 30.057C70.517 30.423 70.317 30.697 70.59 31.076C70.735 31.283 70.7 31.606 70.511 31.844C70.287 32.131 70.251 32.454 70.408 32.771C70.742 33.454 70.802 34.089 70.384 34.784C70.244 35.016 70.347 35.43 70.42 35.742C70.584 36.473 70.99 37.212 70.924 37.912C70.851 38.602 71.039 39.236 71.008 39.902C70.972 40.602 71.148 41.28 71.251 41.969C71.378 42.774 72.112 43.445 71.748 44.372C71.669 44.567 71.942 45.037 72.173 45.202C73.058 45.817 73.149 46.872 73.55 47.72C73.932 48.538 74.199 49.41 74.75 50.142C74.841 50.258 75.145 52.344 75.15 52.52C75.169 53.051 74.738 53.234 74.41 53.454C74.138 53.637 73.792 52.935 73.459 53.435L73.313 52.996L73.064 51.069C72.84 50.581 72.707 50.039 72.294 49.659C72.04 49.429 72.027 49.239 72.258 48.989C72.312 48.928 72.312 48.727 72.258 48.684C72.009 48.483 71.706 48.343 71.475 48.123C71.263 47.922 71.73 47.623 71.372 47.323C70.699 46.763 70.342 45.854 69.99 44.994C69.59 44 69.28 42.987 68.922 41.987C68.807 41.67 68.704 41.383 68.704 41.054C68.704 40.401 68.624 39.785 68.419 39.144C68.225 38.534 68.091 37.815 68.352 37.157C68.601 36.534 68.455 35.955 68.273 35.363C68.213 35.163 67.988 34.918 68.049 34.778C68.473 33.784 67.958 32.692 68.364 31.734C68.631 31.106 68.649 30.484 68.704 29.837C68.783 28.983 68.977 28.142 69.147 27.307C69.177 27.16 69.159 27.001 69.183 26.91C69.401 26.074 68.564 25.355 69.013 24.458C69.401 23.683 69.068 22.805 68.861 22.018C68.734 21.53 69.268 21.17 68.928 20.676C68.668 20.292 68.534 19.804 68.382 19.353C68.267 19.017 68.825 18.81 68.619 18.463C68.467 18.206 68.043 18.249 67.964 17.803C67.921 17.553 67.879 17.389 67.939 17.108C68.031 16.7 68.303 16.096 67.558 15.907C67.703 15.309 67.503 14.87 67.078 14.419C66.714 14.029 66.344 13.607 66.211 13.009C66.126 12.625 65.811 12.259 65.556 11.906C65.15 11.326 64.786 10.674 64.713 9.92303C64.701 9.76503 64.701 9.58803 64.634 9.44803C64.416 8.97203 63.888 9.08203 63.536 8.86803C63.13 8.62403 63.597 7.72203 63.191 7.75203C62.421 7.80703 62.336 6.94703 61.577 6.89803C60.807 6.84903 60.104 6.13603 59.255 5.88003C58.648 5.69703 58.126 5.63003 57.538 5.77003C56.75 5.95903 56.75 5.95903 56.465 4.97703L56.428 5.00003V5.00103ZM30.33 73.496C30.319 73.923 30.452 74.441 29.748 74.416C29.56 74.411 29.415 74.49 29.372 74.655C29.257 75.13 28.845 75.338 28.547 75.655C27.923 75.21 27.171 75.57 26.516 75.338C26.328 75.271 26.182 75.058 26.025 74.898C25.921 74.795 25.825 74.764 25.782 74.862C25.7393 74.9599 25.7205 75.0665 25.727 75.173C25.824 76.497 25.794 76.57 24.927 77.436C24.781 77.582 24.721 77.808 24.593 77.973C24.423 78.186 24.235 78.393 24.017 78.564C23.72 78.802 22.895 78.784 22.822 78.534C22.713 78.149 22.512 77.607 23.052 77.418C23.441 77.283 23.416 76.923 23.653 76.71C24.175 76.228 24.775 75.716 24.715 74.862C24.685 74.429 24.793 73.904 24.593 73.582C24.351 73.197 23.78 73.41 23.362 73.41C22.828 73.417 22.792 73.13 22.707 72.697C22.537 71.837 23.217 71.397 23.587 70.861C23.78 70.581 24.369 70.666 24.775 70.971C25.279 71.349 25.448 71.953 25.83 72.416C26.11 72.752 25.685 73.075 25.54 73.38C25.375 73.728 25.63 73.782 25.794 73.71C26.364 73.447 26.904 73.764 27.456 73.746C27.996 73.728 28.572 73.85 28.96 73.306C29.148 73.051 29.451 73.124 29.706 73.051C30.349 72.868 30.343 72.849 30.331 73.496H30.33ZM28.341 68.183C28.044 68.568 27.795 69.093 27.389 69.367C27.062 69.58 26.559 69.464 26.201 69.098C25.824 68.72 25.57 67.964 25.758 67.622C26.025 67.152 27.171 66.902 27.662 67.262C27.953 67.476 28.299 67.695 28.342 68.183H28.341ZM19.747 74.362C19.457 74.344 18.535 73.422 18.541 73.16C18.547 72.8 19.426 72.08 19.826 72.111C20.226 72.141 20.754 72.678 20.748 73.044C20.736 73.636 20.166 74.392 19.748 74.362H19.747ZM27.371 30.216C27.238 30.197 27.086 30.191 27.135 30.002C27.147 29.947 27.286 29.929 27.371 29.892L27.359 29.88C27.359 29.996 27.359 30.112 27.353 30.228C27.353 30.234 27.371 30.216 27.371 30.216ZM45.572 28.96C45.087 29.392 45.22 29.953 45.22 30.496C45.22 30.783 45.293 30.874 45.578 30.71C45.9 30.527 46.239 30.331 46.591 30.258C46.876 30.198 47.282 30.1 47.471 30.459C47.616 30.746 47.295 30.941 47.198 31.185C47.022 31.655 46.548 31.704 46.172 31.856C45.936 31.954 45.627 31.923 45.36 31.881C44.953 31.826 44.668 32.545 44.201 32.027C43.965 31.765 43.716 30.563 43.771 30.124C43.874 29.319 44.59 28.594 43.947 27.666C43.783 27.428 44.153 26.776 44.341 26.343C44.444 26.105 44.681 25.855 44.984 25.946C45.232 26.026 45.463 26.245 45.505 26.526C45.535 26.726 45.53 27.038 45.408 27.142C44.862 27.587 45.068 28.032 45.323 28.502C45.396 28.642 45.475 28.782 45.573 28.959L45.572 28.96ZM51.134 35.21C51.128 35.925 50.26 36.913 49.363 37.218C48.763 37.425 48.065 37.285 47.525 37.705C47.343 37.852 47.24 37.735 47.125 37.638C46.882 37.431 46.695 37.175 46.3 37.187C45.875 37.199 45.572 36.937 45.578 36.486C45.578 36.229 46.488 35.796 46.748 35.986C47.155 36.284 47.568 36.205 47.992 36.211C48.672 36.217 49.235 36.041 49.569 35.369C49.836 34.833 50.345 34.845 50.849 34.899C51.012 34.912 51.146 35.004 51.134 35.211V35.21ZM40.04 28.245C39.18 28.166 38.555 27.538 38.603 26.8C38.652 26.074 39.434 25.208 39.993 25.275C40.726 25.36 41.308 26.025 41.248 26.715C41.211 27.196 40.362 28.276 40.041 28.245H40.04ZM50.357 21.64C50.679 21.97 51.024 21.878 51.346 21.933C51.934 22.037 52.334 23.049 51.983 23.567C51.801 23.836 51.497 24 51.437 24.367C51.407 24.543 51.182 24.574 51.03 24.537C50.284 24.348 49.733 23.909 49.332 23.244C49.132 22.914 49.49 22.781 49.544 22.537C49.629 22.116 50.03 21.89 50.357 21.64Z" fill="#284854"/>
</g>
<defs>
<clipPath id="clip0">
<rect width="101" height="111" fill="white"/>
</clipPath>
</defs>
</svg>
